<svg width="48" height="48" viewBox="0 0 48 48" fill="none" xmlns="http://www.w3.org/2000/svg">
<path d="M21.375 2.56881V4.96881L14.4937 7.78131C10.6875 9.31881 6.9 10.8563 6.0375 11.2126L4.5 11.8501L2.25 14.8126L0 17.7938V24.6001V31.4063L2.56875 32.1376C3.99375 32.5313 5.30625 32.9063 5.475 32.9626C5.79375 33.0376 5.8125 32.5313 5.85 24.8251L5.90625 16.6313L10.125 15.8063C13.8 15.0938 27.4875 12.4126 33.7312 11.1938L35.8875 10.7626L33.825 9.26256C25.3875 3.05631 21.8062 0.431314 21.6187 0.300064C21.4312 0.187564 21.375 0.693814 21.375 2.56881Z" fill="white"/>
<path d="M42.0939 9.86255C38.9064 10.4063 36.2626 10.8563 36.2439 10.8563C36.2064 10.875 36.1876 16.6875 36.1876 23.8125C36.1876 36.4688 36.1876 36.75 35.8314 36.75C35.6251 36.75 33.0376 36.45 30.0564 36.0938C27.0939 35.7375 20.7751 34.9688 16.0314 34.4063C11.2876 33.8438 7.08761 33.3188 6.69386 33.2625C6.00011 33.15 6.03761 33.2063 11.8501 40.4438L17.7189 47.7375L17.7751 44.775C17.7939 43.1438 17.8501 41.8125 17.8689 41.8125C17.8876 41.8125 22.0876 43.2 27.2064 44.8688L36.4876 47.925L42.2439 43.05L47.9814 38.1563L48.0001 23.475C48.0001 15.4125 47.9814 8.8313 47.9626 8.8313C47.9251 8.85005 45.3001 9.30005 42.0939 9.86255Z" fill="white"/>
</svg>
