<svg width="75" height="48" viewBox="0 0 75 48" fill="none" xmlns="http://www.w3.org/2000/svg">
<path d="M60.174 0.47273C44.7216 -0.0894665 29.2612 -0.0733875 13.8168 0.528966C9.0141 5.28348 4.43622 10.0943 0.0751953 14.9533C13.7848 25.5145 26.1209 36.5577 37.0597 47.9381C47.9743 36.5256 60.2863 25.4503 73.9638 14.857C69.5947 10.014 65.0008 5.21932 60.174 0.47273ZM7.46398 14.5196C10.3863 11.3781 13.3692 8.29344 16.411 5.26748C30.1375 4.7856 43.8764 4.76954 57.604 5.21932C60.6588 8.23438 63.655 11.3083 66.591 14.4392C55.8531 23.065 46.0066 31.9718 37.0517 41.1035C28.0806 31.9959 18.2101 23.1132 7.46406 14.5196H7.46398ZM59.194 14.1341C51.3153 20.6957 43.9264 27.4181 37.0435 34.2607C30.1446 27.4341 22.7397 20.7279 14.8448 14.1903C16.186 12.8009 17.5514 11.4195 18.9328 10.0381C23.4946 9.89352 28.0645 9.8052 32.6263 9.76504C34.1017 11.0807 35.5662 12.4086 37.0195 13.7486C38.4572 12.4154 39.9188 11.0822 41.4046 9.75704C43.9024 9.77304 46.4001 9.8052 48.8979 9.85336C44.8019 13.3872 40.8505 16.9692 37.0356 20.5833C34.6262 18.3024 32.1605 16.0456 29.6387 13.7968C28.434 14.9533 27.2453 16.1178 26.0728 17.2824C29.8073 20.5817 33.4677 23.9637 37.0516 27.4261C42.9306 21.7238 49.1549 16.1098 55.7245 10.6003C56.8892 11.7729 58.0456 12.9535 59.1941 14.1341H59.194Z" fill="white"/>
</svg>
