<svg width="53" height="48" viewBox="0 0 53 48" fill="none" xmlns="http://www.w3.org/2000/svg">
<path d="M26.0492 48.015L35.6297 18.5295H16.4688L26.0492 48.015Z" fill="white"/>
<path d="M26.0497 48.0148L16.4693 18.5293H3.04248L26.0497 48.0148Z" fill="white" fill-opacity="0.8"/>
<path d="M3.04176 18.5297L0.13043 27.49C-0.135116 28.3073 0.15572 29.2026 0.850949 29.7076L26.049 48.0152L3.04176 18.5297Z" fill="white" fill-opacity="0.6"/>
<path d="M3.04102 18.5295H16.4678L10.6975 0.77067C10.4007 -0.143244 9.10791 -0.142996 8.81112 0.77067L3.04102 18.5295Z" fill="white"/>
<path d="M26.0498 48.0148L35.6303 18.5293H49.0571L26.0498 48.0148Z" fill="white" fill-opacity="0.8"/>
<path d="M49.0571 18.5297L51.9684 27.49C52.234 28.3073 51.9431 29.2026 51.2479 29.7076L26.0498 48.0152L49.0571 18.5297Z" fill="white" fill-opacity="0.6"/>
<path d="M49.0557 18.5295H35.6289L41.3993 0.77067C41.696 -0.143244 42.9888 -0.142996 43.2856 0.77067L49.0557 18.5295Z" fill="white"/>
</svg>
