<svg width="48" height="48" viewBox="0 0 48 48" fill="none" xmlns="http://www.w3.org/2000/svg">
<path d="M40 0H8C3.58172 0 0 3.58173 0 8V40C0 44.4183 3.58173 48 8 48H40C44.4183 48 48 44.4183 48 40V8C48 3.58172 44.4183 0 40 0Z" fill="white"/>
<path d="M13.0007 29C15.7625 29 18.0015 26.7614 18.0015 24C18.0015 21.2385 15.7625 19 13.0007 19C10.2389 19 8 21.2385 8 24C8 26.7614 10.2389 29 13.0007 29Z" fill="#143E95"/>
<path d="M27.5009 27.5C29.4344 27.5 31.0018 25.933 31.0018 24C31.0018 22.067 29.4344 20.5 27.5009 20.5C25.5674 20.5 24 22.067 24 24C24 25.933 25.5674 27.5 27.5009 27.5Z" fill="#143E95"/>
<path d="M38.5 25.5C39.3285 25.5 40 24.8285 40 24C40 23.1715 39.3285 22.5 38.5 22.5C37.6715 22.5 37 23.1715 37 24C37 24.8285 37.6715 25.5 38.5 25.5Z" fill="#143E95"/>
</svg>
