<svg width="60" height="48" viewBox="0 0 60 48" fill="none" xmlns="http://www.w3.org/2000/svg">
<g clip-path="url(#clip0_1045_329)">
<path opacity="0.5" fill-rule="evenodd" clip-rule="evenodd" d="M9.24792 33.084L6.10892 34.231L5.94092 43.568L16.8059 39.6C13.0789 38.348 10.3579 36.145 9.24792 33.084Z" fill="white"/>
<path fill-rule="evenodd" clip-rule="evenodd" d="M10.89 23.208L0 27.186L6.11 34.231L9.248 33.084C8.141 30.032 8.824 26.583 10.891 23.208" fill="white"/>
<path opacity="0.2" fill-rule="evenodd" clip-rule="evenodd" d="M29.2181 9.73405C15.3491 14.8001 6.40807 25.254 9.24807 33.084L59.4691 14.7381C56.6291 6.90805 43.0861 4.66805 29.2181 9.73405Z" fill="white"/>
<path fill-rule="evenodd" clip-rule="evenodd" d="M39.5001 38.088C53.3681 33.021 62.3251 22.614 59.4701 14.738L9.24707 33.084C12.1031 40.96 25.6311 43.154 39.5001 38.088Z" fill="white"/>
<path fill-rule="evenodd" clip-rule="evenodd" d="M59.4701 14.738L9.24707 33.084C10.2301 35.796 13.9811 37.132 19.2421 37.132C24.3721 37.132 30.9391 35.863 37.7851 33.362C51.6531 28.296 61.4101 20.093 59.4681 14.738" fill="#CCCCCC" fill-opacity="0.5"/>
<path opacity="0.4" fill-rule="evenodd" clip-rule="evenodd" d="M49.474 10.6899C44.344 10.6899 37.777 11.9589 30.931 14.4599C17.063 19.5259 7.30601 27.7279 9.24801 33.0839L59.469 14.7379C58.486 12.0259 54.736 10.6899 49.474 10.6899Z" fill="white"/>
<path fill-rule="evenodd" clip-rule="evenodd" d="M46.7001 44.063C45.2221 44.063 43.0431 42.728 40.2201 40.096C36.8831 36.982 33.0591 32.421 29.4531 27.252C25.8481 22.085 22.8851 16.918 21.1111 12.704C19.1791 8.11199 18.9031 5.28899 20.2921 4.31199C20.5971 4.09799 20.9641 3.98999 21.3841 3.98999C22.5141 3.98999 24.7161 4.83099 28.7871 8.83999L28.8771 8.92699L28.8641 9.05199C28.8361 9.33999 28.8111 9.63099 28.7881 9.91599L28.7431 10.482L28.3431 10.08C23.9561 5.65999 22.0251 5.18299 21.3981 5.18299C21.2191 5.18299 21.0771 5.21899 20.9751 5.29099C20.3721 5.71399 20.3331 7.78799 22.2071 12.239C23.9501 16.378 26.8691 21.466 30.4271 26.567C33.9871 31.669 37.7521 36.163 41.0311 39.221C44.5661 42.519 46.1591 42.875 46.6811 42.875C46.8611 42.875 47.0061 42.837 47.1151 42.76C47.7501 42.314 47.7511 40.092 45.6611 35.3L45.5651 35.081L45.7751 34.966C45.9851 34.851 46.1891 34.738 46.3791 34.63L46.6311 34.487L46.7471 34.752C48.2281 38.147 49.6131 42.462 47.7971 43.739C47.4911 43.954 47.1221 44.063 46.7001 44.063Z" fill="white"/>
<path fill-rule="evenodd" clip-rule="evenodd" d="M39.8361 37.945L39.8161 38.205C39.4651 42.544 38.5411 47.759 36.1341 47.971C36.0861 47.975 36.0361 47.977 35.9861 47.977C34.3501 47.977 32.8031 45.634 31.3881 41.014C30.0481 36.642 29.0081 30.774 28.4611 24.487C27.9131 18.203 27.9211 12.241 28.4841 7.70199C29.0971 2.75499 30.2651 0.171991 31.9551 0.0229912C32.0051 0.0189912 32.0571 0.0159912 32.1081 0.0159912C33.2941 0.0159912 35.0821 1.35999 36.9121 7.61599L35.7171 7.84599C35.1061 5.75599 34.4401 4.05599 33.7791 2.88599C33.1671 1.80599 32.5731 1.21099 32.1051 1.21099C32.0891 1.21099 32.0741 1.21099 32.0581 1.21299C31.3261 1.27699 30.2591 3.05399 29.6651 7.84899C29.1121 12.307 29.1051 18.179 29.6451 24.383C30.1871 30.588 31.2091 36.37 32.5251 40.663C33.1141 42.585 33.7601 44.17 34.3941 45.245C34.9781 46.237 35.5431 46.783 35.9851 46.783C36.0001 46.783 36.0151 46.783 36.0311 46.781C36.7311 46.72 38.0521 44.871 38.6081 38.366L39.8361 37.945Z" fill="white"/>
</g>
<defs>
<clipPath id="clip0_1045_329">
<rect width="60" height="48" fill="white"/>
</clipPath>
</defs>
</svg>
