<svg width="48" height="48" viewBox="0 0 48 48" fill="none" xmlns="http://www.w3.org/2000/svg">
<g clip-path="url(#clip0_1045_299)">
<path d="M32.5249 33.0488C28.983 33.0488 26.1114 30.1775 26.1114 26.6358C26.1114 23.0938 28.983 20.2223 32.5249 20.2223C36.0672 20.2223 38.9378 23.0938 38.9378 26.6358C38.9378 30.1775 36.0672 33.0488 32.5249 33.0488ZM33.6785 15.7196V10.6249C35.44 10.137 36.7348 8.52627 36.7348 6.60932C36.7348 4.30583 34.8674 2.4387 32.5642 2.4387C30.2605 2.4387 28.3936 4.30583 28.3936 6.60932C28.3936 8.38038 29.4991 9.88972 31.0565 10.4946V15.7196C29.6197 15.8908 28.2678 16.3358 27.0559 17.007L12.7906 6.28199C13.0066 5.75103 13.1277 5.17194 13.1277 4.56352C13.1277 2.04293 11.0847 -0.000400543 8.56387 -0.000400543C6.0436 -0.000400543 4 2.04293 4 4.56352C4 7.08417 6.0436 9.1275 8.56387 9.1275C9.52248 9.1275 10.4119 8.83043 11.146 8.32553L24.8492 18.6278C22.7243 20.6297 21.3902 23.4617 21.3902 26.6112C21.3902 30.5493 23.4711 33.9928 26.586 35.9295L23.19 41.3347C23.0641 41.3206 22.9362 41.3112 22.8061 41.3112C20.9597 41.3112 19.462 42.8088 19.462 44.6555C19.462 46.5026 20.9597 48 22.8061 48C24.6536 48 26.1507 46.5026 26.1507 44.6555C26.1507 43.8963 25.8948 43.1984 25.4685 42.6372L28.9794 37.0496C30.047 37.3956 31.1845 37.5882 32.3675 37.5882C38.4296 37.5882 43.3443 32.6735 43.3443 26.6112C43.3443 20.9933 39.1218 16.3687 33.6785 15.7196Z" fill="white" fill-opacity="0.8"/>
<path d="M6.68852 3.26007C6.25065 4.00819 5.63972 4.47501 5.32403 4.30275C5.00938 4.13085 5.10745 3.38462 5.54585 2.6363C5.98372 1.88803 6.59518 1.42121 6.91034 1.59368C7.22551 1.76574 7.1264 2.51175 6.68852 3.26007Z" fill="white"/>
<path d="M32.6369 3.48282C33.5415 3.56578 34.1865 3.91115 34.0774 4.25363C33.9683 4.59533 33.1466 4.80609 32.2415 4.72277C31.3364 4.63939 30.6914 4.2938 30.801 3.95174C30.91 3.60962 31.7318 3.39944 32.6369 3.48282Z" fill="white"/>
<path d="M21.1191 42.6016C21.7777 41.9764 22.4621 41.7193 22.6467 42.027C22.8318 42.3344 22.4495 43.0917 21.7893 43.7165C21.1306 44.3417 20.4457 44.5994 20.2606 44.2911C20.0755 43.9828 20.4594 43.2265 21.1191 42.6016Z" fill="white"/>
</g>
<defs>
<clipPath id="clip0_1045_299">
<rect width="48" height="48" fill="white"/>
</clipPath>
</defs>
</svg>
