<svg width="48" height="48" viewBox="0 0 48 48" fill="none" xmlns="http://www.w3.org/2000/svg">
<path d="M24.0002 0C10.747 0 0 11.0029 0 24.5762C0 35.4346 6.87679 44.6468 16.4128 47.8965C17.6123 48.124 18.0526 47.3634 18.0526 46.7142C18.0526 46.1282 18.0304 44.1922 18.02 42.1387C11.3431 43.6253 9.93424 39.239 9.93424 39.239C8.84249 36.3983 7.26945 35.643 7.26945 35.643C5.09191 34.1177 7.43359 34.149 7.43359 34.149C9.84363 34.3224 11.1126 36.6816 11.1126 36.6816C13.2532 40.4387 16.7272 39.3525 18.0967 38.7246C18.3121 37.1362 18.9341 36.052 19.6205 35.4383C14.2897 34.8168 8.6859 32.7095 8.6859 23.2926C8.6859 20.6095 9.62345 18.4171 11.1587 16.696C10.9095 16.077 10.088 13.5774 11.3912 10.1922C11.3912 10.1922 13.4066 9.53168 17.993 12.7114C19.9074 12.1668 21.9606 11.8937 24.0002 11.8844C26.0398 11.8937 28.0946 12.1668 30.0126 12.7114C34.5934 9.53168 36.606 10.1922 36.606 10.1922C37.9124 13.5774 37.0905 16.077 36.8413 16.696C38.3801 18.4171 39.3113 20.6095 39.3113 23.2926C39.3113 32.7319 33.6968 34.8103 28.3525 35.4187C29.2133 36.1814 29.9804 37.677 29.9804 39.9699C29.9804 43.2582 29.9526 45.9048 29.9526 46.7142C29.9526 47.3682 30.3846 48.1346 31.6011 47.8932C41.132 44.6399 48 35.431 48 24.5762C48 11.0029 37.2546 0 24.0002 0ZM8.98885 35.0093C8.936 35.1314 8.74841 35.168 8.57751 35.0842C8.40344 35.004 8.30567 34.8376 8.3621 34.7151C8.41377 34.5893 8.60175 34.5543 8.77543 34.6386C8.94991 34.7187 9.04926 34.8868 8.98885 35.0093ZM10.1694 36.088C10.0549 36.1966 9.83118 36.1462 9.67936 35.9744C9.52238 35.8031 9.49297 35.574 9.60902 35.4637C9.72706 35.355 9.94405 35.4059 10.1014 35.5772C10.2584 35.7506 10.289 35.9781 10.1694 36.088ZM10.9793 37.4681C10.8322 37.5727 10.5918 37.4746 10.4432 37.2561C10.2961 37.0375 10.2961 36.7754 10.4463 36.6704C10.5954 36.5654 10.8322 36.6599 10.9829 36.8768C11.1295 37.099 11.1295 37.3611 10.9793 37.4681ZM12.349 39.0665C12.2175 39.215 11.9373 39.1751 11.7322 38.9725C11.5223 38.7743 11.4639 38.493 11.5959 38.3445C11.729 38.1955 12.0108 38.2375 12.2175 38.4385C12.4257 38.6363 12.4893 38.9196 12.349 39.0665ZM14.1192 39.6061C14.0612 39.7986 13.7913 39.8861 13.5195 39.8043C13.248 39.72 13.0704 39.4946 13.1252 39.3C13.1817 39.1063 13.4527 39.0151 13.7266 39.1026C13.9976 39.1865 14.1757 39.4103 14.1192 39.6061ZM16.1338 39.8349C16.1406 40.0376 15.91 40.2057 15.6247 40.2094C15.3377 40.2159 15.1056 40.0519 15.1025 39.8524C15.1025 39.6477 15.3278 39.4813 15.6148 39.4764C15.9001 39.4707 16.1338 39.6335 16.1338 39.8349ZM18.1129 39.7573C18.1471 39.955 17.9488 40.1581 17.6654 40.2122C17.3868 40.2643 17.1289 40.1423 17.0935 39.9461C17.0589 39.7434 17.2608 39.5403 17.539 39.4878C17.8228 39.4374 18.0767 39.5562 18.1129 39.7573Z" fill="white"/>
</svg>
