<svg width="37" height="48" viewBox="0 0 37 48" fill="none" xmlns="http://www.w3.org/2000/svg">
<path fill-rule="evenodd" clip-rule="evenodd" d="M15.9989 45.5314C18.2736 47.0472 21.8597 48 25.4458 48C32.0647 48 36.96 45.12 36.96 38.743C36.96 33.2558 33.9247 30.6509 26.9623 29.1418C23.4454 28.1818 22.1342 27.1538 22.1342 25.1662C22.1342 23.1785 23.7221 21.7361 26.6858 21.7361C29.9258 21.7361 32.5466 22.9032 35.2361 24.8218V18.5832C32.6849 17.0069 29.9261 16.2511 26.4696 16.2511C20.2654 16.2511 15.5753 19.2696 15.5753 25.4388C15.5753 30.7202 18.2647 33.2558 24.6096 34.6958C28.5391 35.7245 30.3322 36.6158 30.3322 39.085C30.3322 41.485 28.3318 42.5129 25.2986 42.5129C22.1942 42.5129 18.8186 41.2138 15.99 39.085L15.9989 45.5314ZM14.6724 22.6282H11.5078V47.3136H4.75248V22.6282H0V16.9375H4.752V11.2469C4.75248 3.70272 8.8896 0 15.3012 0C17.7142 0 19.5763 0.48 21.3012 1.51584V7.74984C19.6464 6.65208 18.1298 6.0348 16.0603 6.0348C13.1635 6.0348 11.5087 7.4748 11.5087 11.1775V16.9375H18.9098C17.8141 17.497 16.862 18.3014 16.1274 19.2883C15.3927 20.2752 14.8953 21.418 14.6736 22.6282H14.6724Z" fill="white"/>
</svg>
