<svg width="48" height="48" viewBox="0 0 48 48" fill="none" xmlns="http://www.w3.org/2000/svg">
<path d="M29.9998 24.0106C29.9991 25.7941 29.6725 27.5006 29.0783 29.0775C27.5022 29.6718 25.7941 29.9983 24.0098 30.0006H23.9894C22.2067 29.9983 20.4986 29.6725 18.9225 29.0783C18.3282 27.5022 18.0009 25.7941 18.0002 24.0106V23.9894C18.0009 22.2067 18.3275 20.4986 18.921 18.9232C20.4971 18.3282 22.2059 18.0009 23.9894 18.0002H24.0098C25.7941 18.0009 27.5022 18.3282 29.0783 18.9232C29.6725 20.4986 29.9991 22.2067 29.9998 23.9894V24.0106ZM47.6667 20.0001H33.6573L43.5627 10.094C42.7845 9.00047 41.9165 7.97486 40.9701 7.02844V7.02768C40.0236 6.08201 38.998 5.21552 37.9053 4.43727L27.9991 14.3434V0.334077C26.7028 0.116135 25.371 0.000754124 24.0121 0H23.9872C22.6282 0.000754124 21.2972 0.116135 20.0001 0.334077V14.3434L10.094 4.43727C9.00047 5.21552 7.97562 6.08277 7.0307 7.02919L7.02542 7.03296C6.0805 7.97788 5.21477 9.00198 4.43651 10.094L14.3434 20.0001H0.334077C0.334077 20.0001 0 22.6313 0 23.9917V24.0083C0 25.3687 0.115381 26.702 0.334077 27.9999H14.3434L4.43651 37.906C5.99453 40.0923 7.90775 42.0062 10.094 43.5635L20.0001 33.6566V47.6667C21.2965 47.8839 22.626 47.9985 23.9827 48H24.0166C25.374 47.9985 26.705 47.8839 27.9991 47.6667V33.6566L37.906 43.5635C38.9988 42.7852 40.0236 41.918 40.9701 40.9723L40.9723 40.9701C41.9172 40.0236 42.7852 38.998 43.5627 37.906L33.6558 27.9999H47.6667C47.8846 26.7043 47.9985 25.3748 48 24.0173V23.9827C47.9985 22.6252 47.8846 21.2957 47.6667 20.0001Z" fill="white"/>
</svg>
