<svg width="44" height="48" viewBox="0 0 44 48" fill="none" xmlns="http://www.w3.org/2000/svg">
<g clip-path="url(#clip0_1045_371)">
<path d="M43.9999 41.9933C44.018 45.2888 41.3209 47.9723 37.9787 47.9901C37.7302 47.992 37.4798 47.9782 37.2333 47.9486C34.1315 47.4964 31.8593 44.8367 31.9355 41.7484V6.24157C31.8613 3.14939 34.1396 0.48963 37.2433 0.0414009C40.5635 -0.341667 43.5711 2.00018 43.9598 5.27206C43.9879 5.51295 44.0019 5.75385 43.9999 5.99673V41.9933Z" fill="white"/>
<path d="M6.03324 36.109C9.36545 36.109 12.0665 38.7707 12.0665 42.0544C12.0665 45.3382 9.36545 47.9999 6.03324 47.9999C2.70103 47.9999 0 45.3382 0 42.0544C0 38.7707 2.70103 36.109 6.03324 36.109ZM21.9068 18.091C18.5586 18.2726 15.9617 21.039 16.0399 24.3425V40.3109C16.0399 44.6451 17.9755 47.2752 20.8108 47.836C24.0829 48.4896 27.2708 46.4064 27.9341 43.1819C28.0162 42.787 28.0563 42.3862 28.0543 41.9834V24.066C28.0603 20.7705 25.3553 18.0949 22.011 18.089C21.977 18.089 21.9409 18.089 21.9068 18.091Z" fill="white" fill-opacity="0.6"/>
</g>
<defs>
<clipPath id="clip0_1045_371">
<rect width="44" height="48" fill="white"/>
</clipPath>
</defs>
</svg>
