<svg width="48" height="48" viewBox="0 0 48 48" fill="none" xmlns="http://www.w3.org/2000/svg">
<path d="M48 21.331H33.9641L46.1199 14.3128L43.4504 9.68784L31.2946 16.7059L38.3112 4.55115L33.6861 1.88009L26.6696 14.0349V0H21.3304V14.0362L14.3111 1.88009L9.68756 4.54981L16.7055 16.7046L4.54969 9.68784L1.88004 14.3115L14.0358 21.3296H0V26.6691H14.0345L1.88004 33.6872L4.54969 38.3122L16.7041 31.2954L9.68622 43.4501L14.3111 46.1199L21.329 33.9639V48H26.6683V33.9651L33.6849 46.1199L38.3097 43.4501L31.2919 31.2941L43.4476 38.3122L46.1173 33.6872L33.9628 26.6704H47.9972V21.331H48ZM24 31.2617C19.9741 31.2617 16.7108 27.9986 16.7108 23.9725C16.7108 19.9464 19.9741 16.6831 24 16.6831C28.026 16.6831 31.2891 19.9464 31.2891 23.9725C31.2891 27.9986 28.026 31.2617 24 31.2617Z" fill="white"/>
</svg>
