<svg width="48" height="48" viewBox="0 0 48 48" fill="none" xmlns="http://www.w3.org/2000/svg">
<path d="M0 24C0 10.7452 10.7452 0 24 0C37.2548 0 48 10.7452 48 24C48 37.2548 37.2548 48 24 48C10.7452 48 0 37.2548 0 24Z" fill="white"/>
<path fill-rule="evenodd" clip-rule="evenodd" d="M22.9096 13.0909C22.9096 12.4885 23.398 12 24.0005 12C24.6029 12 25.0914 12.4885 25.0914 13.0909V28.9091C25.0914 29.5115 24.6029 30 24.0005 30C23.398 30 22.9096 29.5115 22.9096 28.9091V13.0909ZM18.5452 12.552C17.9428 12.552 17.4543 13.0405 17.4543 13.6429V28.2169C17.4543 28.8194 17.9428 29.3078 18.5452 29.3078C19.1477 29.3078 19.6361 28.8194 19.6361 28.2169V13.6429C19.6361 13.0405 19.1477 12.552 18.5452 12.552ZM34.909 26.7273C35.5115 26.7273 36 26.2388 36 25.6364V15.8247C36 15.2223 35.5115 14.7338 34.909 14.7338C34.3066 14.7338 33.8181 15.2223 33.8181 15.8247V25.6364C33.8181 26.2388 34.3066 26.7273 34.909 26.7273ZM24 36C31.4095 36 35.4508 32.6089 35.6193 32.4646C36.0767 32.0725 36.1296 31.3838 35.7374 30.9262C35.3455 30.4685 34.6555 30.4159 34.1989 30.8081C34.164 30.8381 30.6109 33.8182 24 33.8182C17.4709 33.8182 13.8625 30.8594 13.7984 30.8059C13.3408 30.4156 12.6538 30.4696 12.2627 30.9262C11.8705 31.3838 11.9237 32.0725 12.3808 32.4646C12.5493 32.6089 16.5906 36 24 36ZM12 15.8247C12 15.2223 12.4885 14.7338 13.091 14.7338C13.6934 14.7338 14.1819 15.2223 14.1819 15.8247V25.6364C14.1819 26.2388 13.6934 26.7273 13.091 26.7273C12.4885 26.7273 12 26.2388 12 25.6364V15.8247ZM29.4548 12.552C28.8523 12.552 28.3639 13.0405 28.3639 13.6429V28.2169C28.3639 28.8194 28.8523 29.3078 29.4548 29.3078C30.0572 29.3078 30.5457 28.8194 30.5457 28.2169V13.6429C30.5457 13.0405 30.0572 12.552 29.4548 12.552Z" fill="#235ACC"/>
</svg>
