<svg width="48" height="48" viewBox="0 0 48 48" fill="none" xmlns="http://www.w3.org/2000/svg">
<path fill-rule="evenodd" clip-rule="evenodd" d="M48 23.9781C48 37.2201 37.2542 47.9562 24.0006 47.9562C10.7458 47.9562 0 37.2201 0 23.9781C0 10.7349 10.7458 0 24.0006 0C37.2542 0 48 10.7349 48 23.9781ZM39.2148 17.6052C39.061 17.5153 38.8859 17.4679 38.7077 17.4679C38.5294 17.4679 38.3544 17.5153 38.2005 17.6052L25.2575 25.1397C25.1028 25.2303 24.9746 25.3598 24.8856 25.5151C24.7967 25.6705 24.75 25.8464 24.7504 26.0254V29.9977C24.7504 30.3631 24.9421 30.6995 25.2575 30.8822C25.4112 30.972 25.586 31.0193 25.7641 31.0193C25.9421 31.0193 26.117 30.972 26.2706 30.8822L30.5291 28.4018V37.6121C30.5278 37.7456 30.5531 37.8779 30.6033 38.0016C30.6535 38.1253 30.7278 38.2379 30.8219 38.3328C30.916 38.4277 31.0279 38.5031 31.1513 38.5547C31.2747 38.6063 31.4072 38.633 31.541 38.6333C31.7191 38.633 31.8941 38.5858 32.0481 38.4966L34.5923 37.0156C34.7468 36.9251 34.875 36.7958 34.9639 36.6407C35.0529 36.4855 35.0996 36.3098 35.0995 36.1311V25.741L39.2148 23.3441C39.3692 23.2535 39.4971 23.1242 39.5859 22.969C39.6746 22.8139 39.7211 22.6382 39.7207 22.4596V18.4909C39.7207 18.1254 39.5266 17.7879 39.2148 17.6052ZM25.2575 15.1973L29.3365 17.5737C29.347 17.58 29.3557 17.5889 29.3619 17.5994C29.368 17.61 29.3714 17.622 29.3717 17.6342V20.5829C29.3717 20.8939 29.7053 21.0899 29.9747 20.9338C31.5592 20.0118 35.825 17.5338 37.3974 16.6214C37.4576 16.586 37.5074 16.5354 37.5418 16.4748C37.5763 16.4141 37.5941 16.3455 37.5936 16.2758C37.5932 16.2061 37.5743 16.1378 37.539 16.0776C37.5037 16.0174 37.4532 15.9676 37.3925 15.933L26.2706 9.4596C26.1169 9.36996 25.9421 9.32272 25.7641 9.32272C25.586 9.32272 25.4112 9.36996 25.2575 9.4596C25.1029 9.54974 24.9747 9.67875 24.8858 9.83374C24.7968 9.98873 24.7501 10.1643 24.7504 10.3429V14.314C24.7504 14.6782 24.9421 15.0158 25.2575 15.1973ZM22.9621 9.45839C22.8084 9.36875 22.6336 9.32151 22.4555 9.32151C22.2775 9.32151 22.1027 9.36875 21.949 9.45839L10.8222 15.9378C10.762 15.9721 10.7119 16.0215 10.6769 16.0811C10.6419 16.1408 10.6232 16.2085 10.6227 16.2776C10.6222 16.3467 10.6399 16.4148 10.6741 16.4749C10.7083 16.535 10.7577 16.5851 10.8174 16.6202C12.3873 17.5301 16.681 20.0251 18.2583 20.9411C18.3185 20.976 18.3869 20.9944 18.4565 20.9943C18.5261 20.9942 18.5945 20.9757 18.6546 20.9406C18.7147 20.9056 18.7644 20.8552 18.7986 20.7947C18.8328 20.7341 18.8502 20.6657 18.8491 20.5962V17.5955L22.7643 15.3159C23.2011 15.0606 23.4704 14.5923 23.4704 14.0878V10.3429C23.4704 9.97868 23.2763 9.64109 22.9633 9.4596L22.9621 9.45839ZM22.7437 25.1397L9.79825 17.6076C9.64479 17.5179 9.47016 17.4707 9.29232 17.4707C9.11448 17.4707 8.93984 17.5179 8.78639 17.6076C8.63179 17.6977 8.5036 17.8267 8.41462 17.9817C8.32563 18.1367 8.27895 18.3123 8.27925 18.4909V22.4596C8.27925 22.825 8.47337 23.1614 8.78639 23.3441L12.9005 25.7398V36.1311C12.9005 36.4941 13.0934 36.8329 13.4065 37.0144L15.9531 38.4978C16.1078 38.5868 16.2833 38.6333 16.4618 38.6329C16.6404 38.6324 16.8157 38.5848 16.9699 38.495C17.1241 38.4052 17.2517 38.2764 17.3399 38.1216C17.4281 37.9667 17.4737 37.7914 17.4721 37.6133V28.403L21.7306 30.8834C21.7342 30.8834 21.7367 30.8859 21.7391 30.8871C21.8922 30.9743 22.0656 31.0199 22.2419 31.0193C22.4182 31.0187 22.5912 30.9718 22.7437 30.8834C22.8983 30.793 23.0265 30.6638 23.1154 30.5086C23.2044 30.3534 23.2511 30.1777 23.2508 29.9989V26.0242C23.2508 25.6612 23.0567 25.3224 22.7437 25.1409V25.1397Z" fill="white" fill-opacity="0.8"/>
</svg>
