<svg width="45" height="48" viewBox="0 0 45 48" fill="none" xmlns="http://www.w3.org/2000/svg">
<path d="M44.081 24.5332C44.081 22.5599 43.9309 21.1199 43.6062 19.6266H22.4907V28.5331H34.885C34.6352 30.7465 33.2858 34.0799 30.2871 36.3197L30.2451 36.6179L36.9214 42.1373L37.384 42.1865C41.632 37.9998 44.081 31.8398 44.081 24.5332Z" fill="white"/>
<path d="M22.4909 47.9994C28.563 47.9994 33.6607 45.866 37.3841 42.1861L30.2873 36.3193C28.3882 37.7326 25.8393 38.7193 22.4909 38.7193C16.5436 38.7193 11.4959 34.5328 9.69656 28.7461L9.43282 28.77L2.49069 34.5033L2.3999 34.7727C6.09819 42.6126 13.6948 47.9994 22.4909 47.9994Z" fill="white"/>
<path d="M9.69553 28.7478C9.22075 27.2545 8.94598 25.6544 8.94598 24.0011C8.94598 22.3477 9.22075 20.7478 9.67055 19.2544L9.65797 18.9364L2.62884 13.111L2.39886 13.2277C0.874615 16.4811 0 20.1345 0 24.0011C0 27.8678 0.874615 31.521 2.39886 34.7744L9.69553 28.7478Z" fill="white"/>
<path d="M22.4909 9.27993C26.7139 9.27993 29.5626 11.2266 31.1869 12.8534L37.534 6.23999C33.6359 2.37334 28.5631 0 22.4909 0C13.6948 0 6.0982 5.38662 2.3999 13.2265L9.6716 19.2533C11.4959 13.4666 16.5436 9.27993 22.4909 9.27993Z" fill="white"/>
</svg>
