<svg width="33" height="48" viewBox="0 0 33 48" fill="none" xmlns="http://www.w3.org/2000/svg">
<path d="M8.24876 48C12.8044 48 16.4975 44.4183 16.4975 40V32H8.24876C3.69309 32 0 35.5817 0 40C0 44.4183 3.69309 48 8.24876 48Z" fill="white"/>
<path d="M0 24.0003C0 19.582 3.69309 16.0002 8.24876 16.0002H16.4975V32.0003H8.24876C3.69309 32.0003 0 28.4186 0 24.0003Z" fill="white"/>
<path d="M0 8.00002C0 3.58173 3.69309 0 8.24876 0H16.4975V16H8.24876C3.69309 16 0 12.4183 0 8.00002Z" fill="white"/>
<g opacity="0.25">
<path d="M16.5 0H24.7488C29.3044 0 32.9975 3.58173 32.9975 8.00002C32.9975 12.4183 29.3044 16 24.7488 16H16.5V0Z" fill="white"/>
</g>
<path d="M32.9975 24C32.9975 28.4183 29.3044 32 24.7488 32C20.1931 32 16.5 28.4183 16.5 24C16.5 19.5817 20.1931 16 24.7488 16C29.3044 16 32.9975 19.5817 32.9975 24Z" fill="white"/>
</svg>
