<svg width="48" height="48" viewBox="0 0 48 48" fill="none" xmlns="http://www.w3.org/2000/svg">
<path d="M10.0847 30.3321C10.0847 33.1074 7.81758 35.3745 5.04234 35.3745C2.2671 35.3745 0 33.1074 0 30.3321C0 27.5569 2.2671 25.2898 5.04234 25.2898H10.0847V30.3321Z" fill="white"/>
<path d="M12.6252 30.3321C12.6252 27.5569 14.8923 25.2898 17.6676 25.2898C20.4428 25.2898 22.7099 27.5569 22.7099 30.3321V42.9575C22.7099 45.7328 20.4428 47.9999 17.6676 47.9999C14.8923 47.9999 12.6252 45.7328 12.6252 42.9575V30.3321Z" fill="white"/>
<path d="M17.6676 10.0847C14.8923 10.0847 12.6252 7.81758 12.6252 5.04234C12.6252 2.2671 14.8923 0 17.6676 0C20.4428 0 22.7099 2.2671 22.7099 5.04234V10.0847H17.6676Z" fill="white"/>
<path d="M17.6677 12.6254C20.443 12.6254 22.7101 14.8925 22.7101 17.6677C22.7101 20.4429 20.443 22.71 17.6677 22.71H5.04234C2.2671 22.71 0 20.4429 0 17.6677C0 14.8925 2.2671 12.6254 5.04234 12.6254H17.6677Z" fill="white"/>
<path d="M37.9102 17.6677C37.9102 14.8925 40.1773 12.6254 42.9525 12.6254C45.7277 12.6254 47.9948 14.8925 47.9948 17.6677C47.9948 20.4429 45.7277 22.71 42.9525 22.71H37.9102V17.6677Z" fill="white"/>
<path d="M35.3733 17.6677C35.3733 20.443 33.1062 22.7101 30.3309 22.7101C27.5557 22.7101 25.2886 20.443 25.2886 17.6677V5.04234C25.2886 2.2671 27.5557 0 30.3309 0C33.1062 0 35.3733 2.2671 35.3733 5.04234V17.6677Z" fill="white"/>
<path d="M30.3309 37.9154C33.1062 37.9154 35.3733 40.1825 35.3733 42.9577C35.3733 45.733 33.1062 48.0001 30.3309 48.0001C27.5557 48.0001 25.2886 45.733 25.2886 42.9577V37.9154H30.3309Z" fill="white"/>
<path d="M30.3309 35.3745C27.5557 35.3745 25.2886 33.1074 25.2886 30.3321C25.2886 27.5569 27.5557 25.2898 30.3309 25.2898H42.9563C45.7315 25.2898 47.9986 27.5569 47.9986 30.3321C47.9986 33.1074 45.7315 35.3745 42.9563 35.3745H30.3309Z" fill="white"/>
</svg>
