<svg width="56" height="42" viewBox="0 0 56 42" fill="none" xmlns="http://www.w3.org/2000/svg">
<g clip-path="url(#clip0_1045_375)">
<path d="M3.79919 41.9999H12.6639V20.3635L0 10.8181V38.1817C0 40.2945 1.7033 41.9999 3.79919 41.9999Z" fill="#FAFAFA"/>
<path d="M43.0574 41.9999H51.9221C54.0246 41.9999 55.7213 40.2881 55.7213 38.1817V10.8181L43.0574 20.3635" fill="#DDDDDD"/>
<path d="M43.0574 3.81815V20.3636L55.7213 10.8182V5.72726C55.7213 1.00542 50.3583 -1.6864 46.6033 1.14542" fill="#EEEEEE"/>
<path d="M12.6638 20.3635V3.81812L27.8606 15.2726L43.0572 3.81812V20.3635L27.8606 31.8181" fill="white"/>
<path d="M0 5.72726V10.8182L12.6639 20.3636V3.81815L9.11805 1.14542C5.35686 -1.6864 0 1.00542 0 5.72726Z" fill="#DDDDDD"/>
</g>
<defs>
<clipPath id="clip0_1045_375">
<rect width="56" height="42" fill="white"/>
</clipPath>
</defs>
</svg>
