<svg width="48" height="48" viewBox="0 0 48 48" fill="none" xmlns="http://www.w3.org/2000/svg">
<path d="M14.2341 22.1669C13.5168 21.4001 12.3991 21.4435 11.9116 22.4192L0.148586 45.9627C-0.0694872 46.3989 -0.0462601 46.9171 0.20997 47.332C0.4662 47.747 0.918883 47.9995 1.40631 47.9995H17.788C18.3242 48.0119 18.8174 47.7069 19.046 47.2213C22.5783 39.9127 20.4383 28.8003 14.2341 22.1669Z" fill="white"/>
<path d="M22.8663 0.753943C16.2871 11.1854 16.7211 22.7385 21.0547 31.4121L28.9538 47.2216C29.192 47.6983 29.6789 47.9995 30.2115 47.9995H46.593C47.0804 47.9995 47.5331 47.7469 47.7893 47.332C48.0456 46.9171 48.0688 46.3989 47.8507 45.9627C47.8507 45.9627 25.8126 1.84872 25.2583 0.744987C24.7626 -0.243103 23.5036 -0.256538 22.8663 0.753943Z" fill="white"/>
</svg>
