<svg width="48" height="48" viewBox="0 0 48 48" fill="none" xmlns="http://www.w3.org/2000/svg">
<path opacity="0.3" d="M28.5 6H14.5001C14.036 6.00005 13.5909 6.18445 13.2627 6.51265C12.9344 6.84085 12.75 7.28598 12.75 7.75012V15H28.5V6Z" fill="white"/>
<path opacity="0.2" d="M42.4999 6H28.5V15H44.25V7.75012C44.25 7.28598 44.0656 6.84085 43.7374 6.51265C43.4091 6.18445 42.964 6.00005 42.4999 6V6Z" fill="white"/>
<path opacity="0.8" d="M44.25 24H28.5V33H44.25V24Z" fill="white"/>
<path d="M28.5 33V24H12.75V40.2499C12.75 40.714 12.9344 41.1591 13.2627 41.4874C13.5909 41.8156 14.036 42 14.5001 42H42.4999C42.964 42 43.4091 41.8156 43.7374 41.4874C44.0656 41.1591 44.25 40.714 44.25 40.2499V33H28.5Z" fill="white"/>
<path opacity="0.6" d="M28.5 15H12.75V24H28.5V15Z" fill="white"/>
<path opacity="0.4" d="M44.25 15H28.5V24H44.25V15Z" fill="white"/>
<path opacity="0.2" d="M24.75 15.2476V35.0024C24.7517 35.1032 24.7416 35.2039 24.72 35.3024C24.6518 35.7081 24.4416 36.0764 24.127 36.3416C23.8124 36.6067 23.4139 36.7515 23.0024 36.75H12.75V13.5H23.0024C23.232 13.4996 23.4595 13.5445 23.6717 13.6322C23.8839 13.7199 24.0767 13.8486 24.239 14.011C24.4014 14.1733 24.5301 14.3661 24.6178 14.5783C24.7055 14.7905 24.7504 15.018 24.75 15.2476Z" fill="black"/>
<path opacity="0.1" d="M25.5 15.2476V33.5024C25.4938 34.1629 25.2287 34.7946 24.7616 35.2616C24.2946 35.7287 23.6629 35.9938 23.0024 36H12.75V12.75H23.0024C23.6641 12.7523 24.298 13.0162 24.7659 13.4841C25.2338 13.952 25.4977 14.5859 25.5 15.2476V15.2476Z" fill="black"/>
<path opacity="0.2" d="M24.75 15.2476V33.5024C24.7504 33.7321 24.7055 33.9595 24.6178 34.1717C24.5301 34.3839 24.4014 34.5767 24.2391 34.7391C24.0767 34.9014 23.8839 35.0301 23.6717 35.1178C23.4595 35.2055 23.232 35.2504 23.0024 35.25H12.75V13.5H23.0024C23.232 13.4996 23.4595 13.5445 23.6717 13.6322C23.8839 13.7199 24.0767 13.8486 24.2391 14.011C24.4014 14.1733 24.5301 14.3661 24.6178 14.5783C24.7055 14.7905 24.7504 15.018 24.75 15.2476Z" fill="white"/>
<path opacity="0.1" d="M24 15.2476V33.5024C24.0004 33.7321 23.9555 33.9595 23.8678 34.1717C23.7801 34.3839 23.6514 34.5767 23.4891 34.7391C23.3267 34.9014 23.1339 35.0301 22.9217 35.1178C22.7095 35.2055 22.482 35.2504 22.2524 35.25H12.75V13.5H22.2524C22.482 13.4996 22.7095 13.5445 22.9217 13.6322C23.1339 13.7199 23.3267 13.8486 23.4891 14.011C23.6514 14.1733 23.7801 14.3661 23.8678 14.5783C23.9555 14.7905 24.0004 15.018 24 15.2476Z" fill="black"/>
<path d="M22.25 13.5H4.75C3.7835 13.5 3 14.2835 3 15.25V32.75C3 33.7165 3.7835 34.5 4.75 34.5H22.25C23.2165 34.5 24 33.7165 24 32.75V15.25C24 14.2835 23.2165 13.5 22.25 13.5Z" fill="white"/>
<path d="M13.7965 22.7572C13.9153 22.4891 14.0391 22.2287 14.168 21.9759L16.0916 18.4624H18.2255L14.9392 23.8215C14.8899 23.9019 14.8901 24.0033 14.9397 24.0836L18.3117 29.5376H16.0213L13.9377 25.6349L13.9378 25.6348L13.9345 25.6291C13.8414 25.4717 13.762 25.3066 13.6973 25.1356C13.6721 25.0689 13.6081 25.024 13.5359 25.024C13.462 25.024 13.3971 25.0709 13.373 25.1396C13.3152 25.3043 13.2393 25.4621 13.1467 25.6101L13.1465 25.6099L13.1423 25.6176L10.9956 29.5376H8.69451L12.1923 24.1175C12.2438 24.0378 12.2457 23.9358 12.1972 23.8542L8.99222 18.4624H11.3494L13.1477 22.0046C13.3125 22.3396 13.4247 22.5868 13.4864 22.7489C13.5112 22.8142 13.5737 22.857 13.6431 22.857C13.7096 22.857 13.7696 22.8178 13.7965 22.7572Z" stroke="#224FAB" stroke-width="0.3"/>
</svg>
