<svg width="48" height="48" viewBox="0 0 48 48" fill="none" xmlns="http://www.w3.org/2000/svg">
<path d="M21.1499 10.8C20.9999 10.65 20.8499 10.5 20.6999 10.5C20.5499 10.5 20.4749 10.575 20.3249 10.65C19.0499 11.625 17.3249 15.9 15.8999 21.525H17.1749C19.6499 21.525 22.2749 21.6 24.8249 21.6C24.1499 19.05 23.5499 16.8 22.9499 15.075C22.0499 12.45 21.5249 11.325 21.1499 10.8Z" fill="white"/>
<path d="M24 0C10.725 0 0 10.725 0 24C0 37.275 10.725 48 24 48C37.275 48 48 37.275 48 24C48 10.725 37.275 0 24 0ZM41.25 24.45L41.175 24.525H41.1H41.025C40.875 24.6 40.65 24.675 40.425 24.675H29.1C29.175 25.05 29.325 25.5 29.4 25.95C30 28.65 31.65 35.775 33.45 35.775H33.525C34.875 35.775 35.625 33.825 37.125 29.475V29.4C37.35 28.725 37.65 27.9 37.95 27.075L38.025 26.85C38.1 26.55 38.4 26.4 38.7 26.475C39 26.55 39.15 26.85 39.075 27.15L39 27.45C38.85 27.975 38.7 28.65 38.475 29.475C37.575 33.3 36.15 39 32.625 39C30.3 39 28.95 35.325 28.35 33.75C27.225 30.825 26.4 27.675 25.65 24.675H15.15L12.975 31.65C12.675 32.175 12 32.325 11.475 32.025C11.175 31.8 10.95 31.5 10.95 31.125V31.05L11.1 30.3C11.4 28.5 11.775 26.625 12.15 24.75H7.725C6.9 24.6 6.3 23.925 6.3 23.1C6.3 22.275 6.9 21.6 7.65 21.45C7.8 21.45 8.025 21.45 8.175 21.45H8.4C9.825 21.45 11.25 21.525 12.9 21.525C15.225 12.15 17.85 7.425 20.85 7.35C24 7.35 26.4 14.625 28.275 21.675C32.175 21.75 36.3 21.9 40.275 22.125H40.425C40.5 22.125 40.575 22.125 40.65 22.125C41.325 22.275 41.775 22.95 41.625 23.625C41.625 24 41.475 24.225 41.25 24.45Z" fill="white"/>
</svg>
