<svg width="114" height="14" viewBox="0 0 114 14" fill="none" xmlns="http://www.w3.org/2000/svg">
<g clip-path="url(#clip0_654_460)">
<path d="M9.19456 3.64818C9.19456 1.45927 7.49369 0 5.07245 0C1.96151 0 0 2.31051 0 5.7916C0 8.51241 1.24114 11.3096 5.05701 11.3096C6.06841 11.3096 7.3098 11.0817 8.29055 10.0785C9.17936 9.16641 9.24065 8.14808 9.28675 7.49433H6.78877C6.74292 8.9536 5.79282 9.57695 4.79662 9.57695C2.48327 9.57744 2.48327 6.46019 2.48327 5.80765C2.48327 3.54287 3.21883 1.71878 4.98124 1.71878C6.59041 1.71878 6.72821 3.26925 6.7743 3.64915L9.19456 3.64818ZM10.0105 7.28103C10.0105 9.97168 11.7575 11.3244 13.9642 11.3244C16.7687 11.3244 18.0253 9.37873 18.0253 7.22023C18.0253 5.07705 16.8148 3.19215 14.0103 3.19215C10.9599 3.19215 10.0105 5.42654 10.0105 7.28103ZM12.3398 7.29611C12.3398 6.59688 12.355 4.69691 14.0101 4.69691C15.5118 4.69691 15.7112 6.1107 15.7112 7.12902C15.7112 9.16592 15.0369 9.75887 14.0407 9.75887C12.9214 9.75887 12.3398 9.01392 12.3398 7.29635V7.29611ZM19.5621 11.0508H21.8455V6.5514C21.8205 6.14295 21.9164 5.73616 22.1214 5.38106C22.2541 5.19405 22.4311 5.0422 22.6368 4.93883C22.8425 4.83545 23.0707 4.7837 23.3012 4.78811C23.529 4.78015 23.7542 4.83773 23.9497 4.9539C24.1452 5.07008 24.3027 5.23988 24.4031 5.44284C24.5091 5.70828 24.551 5.99461 24.5257 6.279V11.052H26.8398V6.90211C26.8398 5.47324 26.7939 5.07802 26.6252 4.60692C26.4261 4.07501 25.7825 3.16297 24.2653 3.16297C22.5796 3.16297 21.9667 4.15114 21.7521 4.50063L21.6908 3.34538H19.5148C19.5609 3.87728 19.5609 4.71344 19.5609 4.74385L19.5621 11.0508ZM33.3691 9.46994C33.115 9.50218 32.8591 9.51746 32.6029 9.51566C31.5915 9.51566 31.5915 9.07496 31.5763 8.37573V4.90996H33.4152V3.42029H31.5763V1.0947L29.3228 1.91627V3.42126H27.8357V4.91093H29.3223V9.12141C29.3223 9.75985 29.3223 11.1887 31.6057 11.1887C32.2012 11.182 32.7934 11.1003 33.3681 10.9455L33.3691 9.46994ZM41.5979 7.78278C41.6285 7.14435 41.6592 6.01949 41.1382 4.97076C40.4332 3.54189 39.1154 3.11627 38.012 3.11627C37.2387 3.1092 36.481 3.33152 35.836 3.7547C34.5335 4.65167 34.227 6.14134 34.227 7.3878C34.227 8.61918 34.5181 9.65283 35.2232 10.3825C36.0353 11.2186 37.2921 11.3402 37.951 11.3402C39.085 11.3402 40.0964 11.0362 40.6635 10.4435C41.1066 9.99415 41.3683 9.39927 41.399 8.77143H39.3304C39.1158 9.62267 38.549 9.83548 37.9819 9.83548C36.4033 9.83548 36.4033 8.28501 36.4033 7.78351L41.5979 7.78278ZM36.4796 6.36923C36.5257 5.47227 36.9393 4.65167 37.9355 4.65167C39.2534 4.65167 39.284 6.01973 39.284 6.36947L36.4796 6.36923ZM43.095 11.0511H45.3784V6.55164C45.3534 6.1432 45.4493 5.7364 45.6543 5.3813C45.7871 5.19428 45.9641 5.04242 46.1699 4.93904C46.3756 4.83566 46.6038 4.78392 46.8344 4.78835C47.0623 4.78002 47.2877 4.83732 47.4835 4.95333C47.6793 5.06934 47.8371 5.2391 47.9377 5.44211C48.0437 5.70755 48.0857 5.99388 48.0603 6.27827V11.0513H50.3744V6.90211C50.3744 5.47324 50.3283 5.07802 50.1599 4.60692C49.9608 4.07501 49.3172 3.16297 47.7999 3.16297C46.1143 3.16297 45.5013 4.15114 45.2867 4.50063L45.2254 3.34538H43.0494C43.0955 3.87728 43.0955 4.71344 43.0955 4.74385L43.095 11.0511ZM56.902 9.47018C56.648 9.50243 56.392 9.5177 56.1358 9.5159C55.1244 9.5159 55.1244 9.0752 55.1092 8.37597V4.9102H56.9481V3.42053H55.1092V1.09494L52.8559 1.91627V3.42126H51.3696V4.91093H52.8562V9.12141C52.8562 9.75985 52.8562 11.1887 55.1396 11.1887C55.735 11.182 56.3272 11.1003 56.9018 10.9455V9.47115" fill="white"/>
<path d="M58.9256 3.37543V14.0006H61.2397V10.17C61.439 10.4286 62.0059 11.1582 63.4005 11.1582C65.6379 11.1582 66.7719 9.22783 66.7719 7.05401C66.7719 4.71309 65.5614 3.22342 63.5538 3.22342C63.186 3.22342 61.8988 3.23874 61.1938 4.46988L61.1325 3.37543H58.9256ZM62.8167 9.68264C61.1465 9.68264 61.1311 7.73695 61.1311 7.28092C61.1311 5.21362 62.1731 4.6664 62.9087 4.6664C64.242 4.6664 64.4718 6.23195 64.4718 7.144C64.4718 8.66431 63.8894 9.68264 62.8167 9.68264ZM75.2061 7.78267C75.2367 7.14424 75.2674 6.01939 74.7464 4.97066C74.0415 3.54179 72.7236 3.11617 71.6202 3.11617C70.8469 3.10909 70.0892 3.33142 69.4442 3.7546C68.1417 4.65156 67.8352 6.14123 67.8352 7.38769C67.8352 8.61908 68.1265 9.65273 68.8314 10.3824C69.6438 11.2185 70.9003 11.3401 71.5592 11.3401C72.6932 11.3401 73.7046 11.0361 74.2717 10.4434C74.7148 9.99404 74.9765 9.39917 75.0072 8.77133H72.9386C72.7241 9.62257 72.1569 9.83538 71.5901 9.83538C70.0115 9.83538 70.0115 8.2849 70.0115 7.7834L75.2061 7.78267ZM70.0878 6.36912C70.1339 5.47216 70.5475 4.65156 71.5437 4.65156C72.8616 4.65156 72.8923 6.01963 72.8923 6.36937L70.0878 6.36912ZM76.6547 3.37543V14.0006H78.9685V10.17C79.1678 10.4286 79.7347 11.1582 81.1293 11.1582C83.3667 11.1582 84.5007 9.22783 84.5007 7.05401C84.5007 4.71309 83.2899 3.22342 81.2826 3.22342C80.9148 3.22342 79.6276 3.23874 78.9227 4.46988L78.8614 3.37543H76.6547ZM80.547 9.68386C78.8768 9.68386 78.8614 7.73816 78.8614 7.28214C78.8614 5.21484 79.9034 4.66761 80.639 4.66761C81.9723 4.66761 82.202 6.23317 82.202 7.14521C82.202 8.66431 81.6197 9.68264 80.547 9.68264V9.68386ZM85.9929 3.37543V14.0006H88.3067V10.17C88.5061 10.4286 89.073 11.1582 90.4676 11.1582C92.7049 11.1582 93.8389 9.22783 93.8389 7.05401C93.8389 4.71309 92.6282 3.22342 90.6208 3.22342C90.253 3.22342 88.9658 3.23874 88.2609 4.46988L88.1996 3.37543H85.9929ZM89.8853 9.68386C88.215 9.68386 88.1996 7.73816 88.1996 7.28214C88.1996 5.21484 89.2416 4.66761 89.9772 4.66761C91.3105 4.66761 91.5403 6.23317 91.5403 7.14521C91.5403 8.66431 90.958 9.68264 89.8853 9.68264V9.68386ZM102.397 7.78267C102.428 7.14424 102.459 6.01939 101.938 4.97066C101.233 3.54179 99.9149 3.11617 98.8116 3.11617C98.0383 3.10908 97.2805 3.3314 96.6355 3.7546C95.3331 4.65156 95.0266 6.14123 95.0266 7.38769C95.0266 8.61908 95.3176 9.65273 96.0228 10.3824C96.8351 11.2185 98.0917 11.3401 98.7505 11.3401C99.8845 11.3401 100.896 11.0361 101.463 10.4434C101.906 9.99404 102.168 9.39917 102.199 8.77133H100.129C99.9149 9.62257 99.3478 9.83538 98.7809 9.83538C97.2024 9.83538 97.2024 8.2849 97.2024 7.7834L102.397 7.78267ZM97.2792 6.36912C97.3252 5.47216 97.7389 4.65156 98.7351 4.65156C100.053 4.65156 100.084 6.01963 100.084 6.36937L97.2792 6.36912ZM103.853 11.051H106.121V7.26682C106.121 6.30905 106.259 5.13871 108.558 5.35153V3.32995C106.719 3.23875 106.214 4.16611 105.922 4.81962L105.876 3.34527H103.746C103.792 3.78621 103.853 4.89575 103.853 5.26056V11.051ZM111.683 0.483398C111.069 0.484939 110.481 0.727582 110.047 1.15827C109.612 1.58896 109.368 2.17266 109.366 2.78175C109.368 3.39082 109.612 3.97448 110.047 4.40516C110.481 4.83583 111.069 5.0785 111.683 5.0801C112.297 5.07856 112.886 4.83592 113.32 4.40523C113.754 3.97454 113.999 3.39084 114 2.78175C114.001 2.47981 113.941 2.18078 113.824 1.90177C113.708 1.62277 113.537 1.36926 113.322 1.15576C113.107 0.942255 112.851 0.772952 112.57 0.657539C112.289 0.542126 111.987 0.482867 111.683 0.483155L111.683 0.483398ZM111.677 0.854297C112.193 0.852875 112.687 1.05447 113.053 1.41476C113.418 1.77505 113.625 2.26456 113.626 2.77567C113.624 3.28772 113.418 3.77815 113.053 4.14025C112.688 4.50236 112.194 4.70684 111.677 4.7092C111.162 4.70746 110.669 4.50281 110.305 4.14023C109.942 3.77765 109.739 3.28682 109.74 2.77567C109.74 2.5232 109.79 2.27311 109.887 2.03975C109.984 1.80639 110.127 1.59436 110.307 1.41582C110.486 1.23729 110.7 1.09576 110.935 0.999353C111.171 0.90295 111.423 0.853573 111.677 0.854054V0.854297ZM110.813 4.07077H111.315V3.03712H111.769C111.953 3.03712 112.002 3.11009 112.039 3.25601C112.039 3.2925 112.124 3.94917 112.137 4.07077H112.688C112.612 3.85102 112.566 3.62186 112.553 3.38978C112.504 3.06144 112.48 2.83039 112.124 2.80607C112.271 2.78017 112.402 2.70099 112.493 2.58404C112.584 2.46708 112.627 2.32077 112.615 2.17372C112.615 1.49273 112.014 1.49273 111.707 1.49273H110.813L110.813 4.07077ZM111.303 1.90619H111.72C111.855 1.90619 112.1 1.90619 112.1 2.25885C112.103 2.30969 112.095 2.3606 112.076 2.40794C112.057 2.45528 112.028 2.49789 111.991 2.53273C111.953 2.56757 111.908 2.59378 111.86 2.6095C111.811 2.62522 111.759 2.63005 111.708 2.62366H111.304V1.90619" fill="white"/>
</g>
<defs>
<clipPath id="clip0_654_460">
<rect width="114" height="14" fill="white"/>
</clipPath>
</defs>
</svg>
