<svg width="120" height="32" viewBox="0 0 120 32" fill="none" xmlns="http://www.w3.org/2000/svg">
<g clip-path="url(#clip0_654_398)">
<path d="M36.2494 20.066L18.9294 0.299299L18.9164 0.286286C18.9033 0.273273 18.9033 0.273273 18.8902 0.26026C18.8772 0.247247 18.8772 0.247247 18.8641 0.234234C18.851 0.221221 18.851 0.221221 18.838 0.208208C18.8249 0.195195 18.8249 0.195195 18.8119 0.182181C18.7988 0.169169 18.7988 0.169169 18.7857 0.156156C18.7727 0.143143 18.7727 0.143143 18.7596 0.13013C18.7465 0.13013 18.7465 0.117117 18.7335 0.117117C18.7204 0.104104 18.7074 0.104104 18.7074 0.104104C18.6943 0.104104 18.6943 0.0910907 18.6812 0.0910907C18.6682 0.0910907 18.6551 0.0780777 18.642 0.0780777C18.629 0.0780777 18.629 0.065065 18.616 0.065065C18.6028 0.065065 18.5898 0.052052 18.5768 0.052052H18.5637H18.5506C18.5375 0.052052 18.5245 0.039039 18.5115 0.039039C18.4983 0.039039 18.4853 0.039039 18.4853 0.026026C18.4723 0.026026 18.4592 0.026026 18.4461 0.013013C18.4331 0.013013 18.42 0.013013 18.42 0C18.4069 0 18.3939 0 18.3808 0C18.3678 0 18.3547 0 18.3547 0C18.3416 0 18.3286 0 18.3155 0C18.3024 0 18.2894 0 18.2894 0C18.2763 0 18.2633 0 18.2502 0C18.2371 0 18.2241 0 18.2241 0C18.211 0 18.1979 0 18.1849 0C18.1719 0 18.1588 0 18.1588 0C18.1457 0 18.1326 0 18.1196 0C18.1065 0 18.0934 0 18.0934 0C18.0804 0 18.0674 0 18.0542 0.013013C18.0412 0.013013 18.0282 0.013013 18.0282 0.026026C18.0151 0.026026 18.002 0.026026 17.989 0.039039C17.9759 0.039039 17.9628 0.052052 17.9497 0.052052H17.9367H17.9237C17.9106 0.052052 17.8975 0.065065 17.8845 0.065065C17.8714 0.065065 17.8583 0.0780777 17.8583 0.0780777C17.8453 0.0780777 17.8322 0.0910907 17.8322 0.0910907C17.8192 0.0910907 17.8192 0.104104 17.8061 0.104104C17.793 0.104104 17.78 0.117117 17.78 0.117117C17.7669 0.117117 17.7669 0.13013 17.7538 0.13013C17.7408 0.143143 17.7408 0.143143 17.7277 0.156156C17.7147 0.169169 17.7147 0.169169 17.7016 0.182181C17.6885 0.195195 17.6885 0.195195 17.6755 0.208208C17.6624 0.221221 17.6624 0.221221 17.6493 0.234234C17.6363 0.247247 17.6363 0.247247 17.6233 0.26026C17.6101 0.273273 17.6101 0.273273 17.5971 0.286286L17.5841 0.299299L0.224879 20.066C0.0420134 20.2743 -0.0363576 20.5475 0.0158897 20.8208C0.0550752 21.0941 0.224879 21.3283 0.459991 21.4584L17.78 31.4263C17.793 31.4394 17.8192 31.4394 17.8322 31.4524C17.8453 31.4654 17.8714 31.4654 17.8845 31.4784C17.8975 31.4914 17.9106 31.4914 17.9367 31.4914C17.9367 31.4914 17.9367 31.4914 17.9497 31.4914C17.9628 31.4914 17.989 31.5045 18.002 31.5045C18.0151 31.5045 18.0282 31.5174 18.0542 31.5174H18.0674C18.0804 31.5174 18.1065 31.5174 18.1196 31.5305C18.1588 31.5305 18.1979 31.5435 18.2371 31.5435C18.2633 31.5435 18.2763 31.5435 18.3024 31.5435H18.3155C18.3286 31.5435 18.3416 31.5435 18.3678 31.5435C18.3808 31.5435 18.3939 31.5435 18.4069 31.5305H18.42C18.4331 31.5305 18.4461 31.5305 18.4592 31.5174C18.4723 31.5174 18.4723 31.5174 18.4853 31.5174C18.4983 31.5174 18.5115 31.5045 18.5245 31.5045C18.5375 31.5045 18.5375 31.5045 18.5506 31.4914C18.5637 31.4914 18.5768 31.4784 18.5768 31.4784C18.5898 31.4784 18.5898 31.4784 18.6028 31.4654C18.616 31.4654 18.616 31.4524 18.629 31.4524C18.642 31.4524 18.6551 31.4394 18.6682 31.4394C18.6682 31.4394 18.6812 31.4394 18.6812 31.4263C18.6943 31.4263 18.7074 31.4134 18.7204 31.4134L36.0143 21.4584C36.2494 21.3283 36.4192 21.0811 36.4584 20.8208C36.4976 20.5475 36.4192 20.2743 36.2494 20.066ZM17.3228 3.33133V29.058L2.34089 20.4304L17.3228 3.33133ZM19.1515 29.058V3.33133L34.1334 20.4434L19.1515 29.058Z" fill="white"/>
<path d="M40.5854 20.3905L42.0483 18.959C43.0933 20.2213 44.295 20.8589 45.6664 20.8589C46.3718 20.8589 46.9857 20.6507 47.482 20.2343C47.9914 19.8179 48.2396 19.2844 48.2396 18.6467C48.2396 17.97 47.9784 17.4365 47.469 17.0201C46.9596 16.6167 46.2019 16.2133 45.2223 15.8229C44.2427 15.4325 43.5505 15.1072 43.1324 14.8469C41.8785 14.0141 41.2515 12.934 41.2515 11.5937C41.2515 10.5136 41.6826 9.5897 42.5316 8.82194C43.3806 8.05417 44.4517 7.67676 45.7448 7.67676C47.2078 7.67676 48.54 8.17124 49.7287 9.14724L48.4747 10.6828C47.6649 10.0061 46.7897 9.66775 45.8232 9.66775C45.157 9.66775 44.5823 9.84992 44.099 10.2013C43.6157 10.5656 43.3676 11.0471 43.3676 11.6457C43.3676 12.2053 43.6288 12.6737 44.1513 13.0511C44.6737 13.4285 45.4052 13.8059 46.3587 14.1963C47.3123 14.5866 48.0045 14.912 48.4225 15.1983C49.7026 16.0441 50.3556 17.1632 50.3556 18.5687C50.3556 19.8439 49.9246 20.8849 49.0364 21.6657C48.1613 22.4596 47.0641 22.8499 45.7578 22.8499C43.6941 22.8629 41.9569 22.0301 40.5854 20.3905Z" fill="white"/>
<path d="M58.7416 16.1091H55.241V22.6546H53.125V7.87183H58.7416C60.0347 7.87183 61.0666 8.19721 61.8373 8.84783C62.8169 9.68068 63.3001 10.7217 63.3001 11.9969C63.3001 13.2723 62.8169 14.3133 61.8373 15.1461C61.0666 15.7838 60.0347 16.1091 58.7416 16.1091ZM55.241 14.1051H58.624C59.5122 14.1051 60.1653 13.8838 60.5702 13.4544C60.9621 13.038 61.158 12.5435 61.158 11.9969C61.158 11.4504 60.9621 10.969 60.5702 10.5395C60.1653 10.1101 59.5122 9.88884 58.624 9.88884H55.241V14.1051Z" fill="white"/>
<path d="M65.8354 22.6416V7.87183H67.9514V22.6416H65.8354Z" fill="white"/>
<path d="M71.7653 22.6416V7.87183H73.8813V14.0921L79.9813 7.87183H82.7762L76.0888 14.7297L83.2071 22.6416H80.5034L73.8944 15.2632V22.6416H71.7653Z" fill="white"/>
<path d="M96.1256 7.87183L91.0447 15.8878V22.6416H88.9288V15.8878L83.8478 7.87183H86.2119L89.9863 13.8058L93.7615 7.87183H96.1256Z" fill="white"/>
<path d="M96.974 22.42C96.686 22.1337 96.5424 21.7823 96.5424 21.3789C96.5424 20.9755 96.686 20.6242 96.974 20.3379C97.2612 20.0516 97.614 19.9084 98.0183 19.9084C98.4234 19.9084 98.7762 20.0516 99.0634 20.3379C99.3506 20.6242 99.495 20.9755 99.495 21.3789C99.495 21.7823 99.3506 22.1337 99.0634 22.42C98.7762 22.7063 98.4234 22.8494 98.0183 22.8494C97.614 22.8494 97.2612 22.7063 96.974 22.42Z" fill="white"/>
<path d="M113.079 22.6416L111.512 18.8418H105.268L103.728 22.6416H101.52L107.659 7.87183H109.148L115.287 22.6416H113.079ZM108.403 11.3594L106.117 16.8508H110.69L108.403 11.3594Z" fill="white"/>
<path d="M117.299 22.6416V7.87183H119.415V22.6416H117.299Z" fill="white"/>
</g>
<defs>
<clipPath id="clip0_654_398">
<rect width="119.415" height="32" fill="white"/>
</clipPath>
</defs>
</svg>
