<svg width="130" height="130" viewBox="0 0 130 130" fill="none" xmlns="http://www.w3.org/2000/svg">
<g opacity="0.25" clip-path="url(#clip0_1_8)">
<path fill-rule="evenodd" clip-rule="evenodd" d="M45.1438 63.3444C43.9832 63.8983 42.8231 64.4649 41.8735 64.9977C24.8872 74.4119 9.16655 89.1594 0.304124 106.45C-0.0123915 107.079 0.198619 107.855 0.831649 108.179C1.46468 108.503 2.20383 108.254 2.52035 107.623C11.2773 90.7726 26.5755 76.4186 43.1398 67.2428C43.6673 66.939 44.3005 66.6235 44.9336 66.3038C45.0391 67.8706 45.5664 69.1609 46.3049 70.2012C47.4655 71.7437 49.2589 72.7913 51.369 73.3727C54.3231 74.1756 57.8044 74.0869 60.9695 73.3526C63.3961 72.7639 65.6119 71.7574 66.9835 70.5156C68.1441 69.5144 68.7769 68.3454 68.8824 67.1131C68.9879 65.8154 68.461 64.3741 66.8784 62.9266C64.2408 60.4145 60.653 59.6686 56.7493 59.9873C53.9007 60.2236 50.9469 61.0486 48.2038 62.0741C48.5203 61.2174 48.9426 60.2922 49.4701 59.2941C53.6903 51.7958 63.8182 44.7312 75.7402 38.8757C93.8871 29.9837 117.049 24.0601 129.499 23.9999C130.132 23.9968 129.97 23.3158 129.97 22.6068C129.97 21.8978 130.132 21.4968 129.499 21.4999C116.732 21.5611 93.149 27.4917 74.5801 36.5694C62.1305 42.6939 51.5796 50.2048 47.2539 58.0491C46.1988 60.0221 45.4603 61.7819 45.1438 63.3444ZM47.4651 65.1306C47.3596 66.575 47.6759 67.7387 48.3089 68.6587C49.153 69.7718 50.5245 70.4766 52.0016 70.8954C54.5337 71.5918 57.5938 71.4894 60.3369 70.8522C62.236 70.3953 64.0292 69.6673 65.1897 68.721C65.8227 68.1861 66.2454 67.6047 66.3509 66.9337C66.3509 66.249 65.9282 65.5526 65.1897 64.7888C62.9741 62.7757 60.0202 62.2925 56.9605 62.5479C53.7954 62.8137 50.3137 63.892 47.4651 65.1306Z" fill="#8C97AC"/>
<path fill-rule="evenodd" clip-rule="evenodd" d="M2.49149 107.5C5.12911 100.57 5.65726 92.4373 4.70771 85.1047C4.60221 84.401 3.96938 83.9009 3.33635 83.9895C2.59782 84.0771 2.06967 84.7196 2.17518 85.4223C3.01922 92.3508 2.5972 100.037 0.0650782 106.586C-0.145932 107.248 0.170789 107.991 0.803819 108.244C1.54235 108.496 2.28048 108.163 2.49149 107.5Z" fill="#8C97AC"/>
<path fill-rule="evenodd" clip-rule="evenodd" d="M2.45464 107.868C6.99136 102.394 14.6938 100.156 21.5517 99.2975C22.1847 99.2089 22.7122 98.5654 22.6067 97.8616C22.5012 97.159 21.8678 96.6599 21.1292 96.7485C13.7439 97.6854 5.4094 100.268 0.450666 106.239C0.0286456 106.787 0.134357 107.597 0.661882 108.046C1.18941 108.497 2.03262 108.415 2.45464 107.868Z" fill="#8C97AC"/>
</g>
<defs>
<clipPath id="clip0_1_8">
<rect width="130" height="130" fill="white"/>
</clipPath>
</defs>
</svg>
