<svg width="72" height="72" viewBox="0 0 72 72" fill="none" xmlns="http://www.w3.org/2000/svg">
<circle opacity="0.1" cx="36" cy="36" r="36" fill="#2D70FD"/>
<path opacity="0.4" d="M52.6665 42.567C52.6665 47.217 48.9332 50.9837 44.2832 51.0003H44.2665H27.7498C23.1165 51.0003 19.3332 47.2503 19.3332 42.6003V42.5837C19.3332 42.5837 19.3432 35.207 19.3565 31.497C19.3582 30.8003 20.1582 30.4103 20.7032 30.8437C24.6632 33.9853 31.7448 39.7137 31.8332 39.7887C33.0165 40.737 34.5165 41.272 36.0498 41.272C37.5832 41.272 39.0832 40.737 40.2665 39.7703C40.3548 39.712 47.2782 34.1553 51.2982 30.962C51.8448 30.527 52.6482 30.917 52.6498 31.612C52.6665 35.2937 52.6665 42.567 52.6665 42.567" fill="#2D70FD"/>
<path d="M51.7933 25.456C50.35 22.736 47.51 20.9993 44.3833 20.9993H27.75C24.6233 20.9993 21.7833 22.736 20.34 25.456C20.0167 26.0643 20.17 26.8227 20.7083 27.2527L33.0833 37.151C33.95 37.851 35 38.1993 36.05 38.1993C36.0567 38.1993 36.0617 38.1993 36.0667 38.1993C36.0717 38.1993 36.0783 38.1993 36.0833 38.1993C37.1333 38.1993 38.1833 37.851 39.05 37.151L51.425 27.2527C51.9633 26.8227 52.1167 26.0643 51.7933 25.456" fill="#2D70FD"/>
</svg>
