<svg width="32" height="32" viewBox="0 0 32 32" fill="none" xmlns="http://www.w3.org/2000/svg">
<g clip-path="url(#clip0_1559_1101)">
<path d="M31.0847 4.37498C30.6139 3.90342 29.8501 3.9026 29.3794 4.37298L22.1452 11.588L14.911 18.8031L9.69092 13.1335C9.23986 12.6439 8.47723 12.6122 7.9868 13.0632C7.49673 13.5142 7.46536 14.2772 7.91642 14.7673L13.9868 21.3599C14.2091 21.6015 14.5202 21.7418 14.8483 21.7486C14.8571 21.749 14.8656 21.749 14.874 21.749C15.1929 21.749 15.4995 21.6224 15.7255 21.3972L31.0823 6.08067C31.5542 5.61035 31.555 4.84654 31.0847 4.37498Z" fill="#2D70FD"/>
<path opacity="0.2" d="M30.7787 17.3811C30.1226 17.2654 29.4972 17.7033 29.3815 18.3594C28.0805 25.7383 21.0194 30.6825 13.6405 29.3814C6.26209 28.0804 1.31744 21.0192 2.61853 13.6404C3.91955 6.26195 10.9811 1.31737 18.3596 2.61839C19.0156 2.73406 19.641 2.29615 19.7567 1.64014C19.8724 0.984074 19.4344 0.358642 18.7784 0.242971C10.0899 -1.28904 1.77512 4.53306 0.243113 13.2215C-1.28883 21.9096 4.5332 30.2248 13.2217 31.7568C21.9098 33.2888 30.225 27.4664 31.757 18.7783C31.8726 18.1223 31.4347 17.4968 30.7787 17.3811Z" fill="#2D70FD"/>
</g>
<defs>
<clipPath id="clip0_1559_1101">
<rect width="32" height="32" fill="white"/>
</clipPath>
</defs>
</svg>
