<svg width="19" height="19" viewBox="0 0 19 19" fill="none" xmlns="http://www.w3.org/2000/svg">
<path d="M11.179 10.9021C11.1282 11.0291 11.0276 11.1298 10.9005 11.1806L6.29035 13.025C5.88217 13.1883 5.47709 12.7833 5.6404 12.3751L7.48486 7.76491C7.53568 7.63789 7.63633 7.53723 7.76335 7.48641L12.3735 5.64195C12.7817 5.47865 13.1868 5.88373 13.0235 6.29191L11.179 10.9021Z" stroke="white" stroke-linecap="round" stroke-linejoin="round"/>
<path d="M9.33333 17.6667C13.9357 17.6667 17.6667 13.9357 17.6667 9.33333C17.6667 4.73096 13.9357 1 9.33333 1C4.73096 1 1 4.73096 1 9.33333C1 13.9357 4.73096 17.6667 9.33333 17.6667Z" stroke="white" stroke-linecap="round" stroke-linejoin="round"/>
</svg>
