<svg width="18" height="18" viewBox="0 0 18 18" fill="none" xmlns="http://www.w3.org/2000/svg">
<path d="M10.8462 10.5686C10.7954 10.6956 10.6948 10.7963 10.5677 10.8471L5.95756 12.6915C5.54938 12.8549 5.1443 12.4498 5.3076 12.0416L7.15206 7.43141C7.20288 7.30439 7.30354 7.20374 7.43056 7.15292L12.0407 5.30846C12.4489 5.14515 12.854 5.55023 12.6907 5.95841L10.8462 10.5686Z" stroke="white" stroke-linecap="round" stroke-linejoin="round"/>
<path d="M9.00051 17.3332C13.6029 17.3332 17.3338 13.6022 17.3338 8.99984C17.3338 4.39746 13.6029 0.666504 9.00051 0.666504C4.39814 0.666504 0.667175 4.39746 0.667175 8.99984C0.667175 13.6022 4.39814 17.3332 9.00051 17.3332Z" stroke="white" stroke-linecap="round" stroke-linejoin="round"/>
</svg>
