<svg width="24" height="24" viewBox="0 0 24 24" fill="none" xmlns="http://www.w3.org/2000/svg">
<path opacity="0.2" d="M16.774 0.999756H7.237C3.508 0.999756 1 3.61776 1 7.51176V16.4988C1 20.3818 3.508 22.9998 7.237 22.9998H16.774C20.503 22.9998 23 20.3818 23 16.4988V7.51176C23 3.61776 20.503 0.999756 16.774 0.999756Z" fill="#FF9C54"/>
<path d="M10.6925 15.5727C10.4461 15.5727 10.1997 15.4792 10.0116 15.2911L7.40129 12.6808C7.02509 12.3046 7.02509 11.6952 7.40129 11.3201C7.77749 10.9439 8.38579 10.9428 8.76199 11.319L10.6925 13.2495L15.2333 8.70872C15.6095 8.33252 16.2178 8.33252 16.594 8.70872C16.9702 9.08492 16.9702 9.69432 16.594 10.0705L11.3734 15.2911C11.1853 15.4792 10.9389 15.5727 10.6925 15.5727Z" fill="#FF9C54"/>
</svg>
