<svg width="48" height="48" viewBox="0 0 48 48" fill="none" xmlns="http://www.w3.org/2000/svg">
<rect opacity="0.1" x="0.5" y="0.5" width="47" height="47" rx="11.5" fill="white" stroke="#8C97AC" stroke-linecap="round" stroke-linejoin="round" />
<path opacity="0.4" fill-rule="evenodd" clip-rule="evenodd" d="M27.3558 19.0564C27.374 19.1897 27.3911 19.3152 27.4003 19.4814L17.7879 29.0926H17.5656C16.1577 29.0926 15.1308 28.0976 14.9402 26.5522C14.7285 25.0068 14.7708 22.3605 14.9402 20.9527C15.1414 19.492 16.2212 18.4864 17.5656 18.4864H19.3971L22.8905 15.6274C23.314 15.2686 24.0656 14.9299 24.6479 14.9182C25.7065 14.9182 26.6804 15.6602 27.0298 16.8457C27.1674 17.3422 27.2203 17.8407 27.2627 18.316L27.3474 18.9945C27.3502 19.0154 27.353 19.036 27.3558 19.0564ZM26.3815 25.2315C26.5255 25.0907 26.8441 24.9912 26.9881 25.0272C27.3777 25.1267 27.4528 25.6845 27.4475 26.1227C27.4295 27.3951 27.3861 28.28 27.3184 28.8272L27.2707 29.2781L27.2699 29.2866C27.2246 29.7402 27.1778 30.2095 27.0442 30.7103C26.6906 31.8937 25.7453 32.6622 24.6718 32.6622C24.6358 32.6622 24.6009 32.6622 24.5649 32.6611C23.9721 32.6611 23.3273 32.3055 22.9621 31.9953L21.6611 30.9887C21.1677 30.6214 21.3128 30.0339 21.5901 29.6941C21.7972 29.4413 24.285 27.158 25.5929 25.9577C26.037 25.5501 26.345 25.2674 26.3815 25.2315Z" fill="#8C97AC" />
<path d="M33.2275 14.7698C32.8538 14.4088 32.2801 14.411 31.9201 14.7708L14.7703 31.9186C14.4094 32.2795 14.4094 32.8543 14.7735 33.2322C14.9598 33.4047 15.1906 33.5 15.4246 33.5C15.6638 33.5 15.9094 33.3994 16.0799 33.229L33.2286 16.0813C33.5906 15.7193 33.5906 15.1329 33.2275 14.7698" fill="#8C97AC" />
</svg>