<svg width="24" height="24" viewBox="0 0 24 24" fill="none" xmlns="http://www.w3.org/2000/svg">
<path opacity="0.4" fill-rule="evenodd" clip-rule="evenodd" d="M15.3558 7.05636C15.374 7.18967 15.3911 7.31524 15.4003 7.48142L5.78794 17.0926H5.56563C4.15765 17.0926 3.13078 16.0976 2.94023 14.5522C2.7285 13.0068 2.77085 10.3605 2.94023 8.95274C3.14137 7.492 4.22117 6.48643 5.56563 6.48643H7.39705L10.8905 3.62741C11.314 3.26858 12.0656 2.92986 12.6479 2.91821C13.7065 2.91821 14.6804 3.66022 15.0298 4.84575C15.1674 5.34219 15.2203 5.84074 15.2627 6.31601L15.3474 6.99451C15.3502 7.01542 15.353 7.03598 15.3558 7.05636ZM14.3815 13.2315C14.5255 13.0907 14.8441 12.9912 14.9881 13.0272C15.3777 13.1267 15.4528 13.6845 15.4475 14.1227C15.4295 15.3951 15.3861 16.28 15.3184 16.8272L15.2707 17.2781L15.2699 17.2866C15.2246 17.7402 15.1778 18.2095 15.0442 18.7103C14.6906 19.8937 13.7453 20.6622 12.6718 20.6622C12.6358 20.6622 12.6009 20.6622 12.5649 20.6611C11.9721 20.6611 11.3273 20.3055 10.9621 19.9953L9.66107 18.9887C9.16775 18.6214 9.31278 18.0339 9.59014 17.6941C9.79719 17.4413 12.285 15.158 13.5929 13.9577C14.037 13.5501 14.345 13.2674 14.3815 13.2315Z" fill="#8C97AC"/>
<path d="M21.2275 2.76979C20.8538 2.40884 20.2801 2.41095 19.9201 2.77085L2.77035 19.9186C2.40936 20.2795 2.40936 20.8543 2.77352 21.2322C2.95984 21.4047 3.19062 21.5 3.42458 21.5C3.66383 21.5 3.90943 21.3994 4.07987 21.229L21.2286 4.08127C21.5906 3.71926 21.5906 3.13285 21.2275 2.76979" fill="#8C97AC"/>
</svg>
