<svg width="22" height="18" viewBox="0 0 22 18" fill="none" xmlns="http://www.w3.org/2000/svg">
<path d="M12.3571 3.45058C12.3068 2.96423 12.2543 2.45964 12.1254 1.95612C11.7741 0.751545 10.801 2.48539e-05 9.75762 2.48539e-05C9.17565 -0.00212235 8.43954 0.35646 8.0222 0.719337L4.56287 3.61698H2.75194C1.41918 3.61698 0.347511 4.64442 0.145131 6.12706C-0.0268386 7.55066 -0.0687825 10.2379 0.145131 11.8043C0.330733 13.3706 1.35416 14.383 2.75194 14.383H4.56287L8.08931 17.3236C8.45107 17.6382 9.08967 17.9989 9.67688 17.9989C9.71463 18 9.74819 18 9.78174 18C10.845 18 11.7814 17.2206 12.1327 16.0192C12.2659 15.5082 12.312 15.0294 12.3571 14.5666L12.4043 14.1082C12.5846 12.6213 12.5846 5.3691 12.4043 3.8929L12.3571 3.45058Z" fill="#2D70FD"/>
<path opacity="0.4" d="M16.4066 3.49459C16.1182 3.06944 15.5468 2.96315 15.1284 3.25839C14.7142 3.55578 14.6114 4.14197 14.8998 4.56604C15.7019 5.74807 16.1434 7.32197 16.1434 9.00001C16.1434 10.677 15.7019 12.2519 14.8998 13.434C14.6114 13.858 14.7142 14.4442 15.1294 14.7416C15.2846 14.8511 15.466 14.9091 15.6527 14.9091C15.9536 14.9091 16.2346 14.7577 16.4066 14.5054C17.4196 13.0131 17.9785 11.0581 17.9785 9.00001C17.9785 6.94192 17.4196 4.98689 16.4066 3.49459" fill="#2D70FD"/>
<path opacity="0.4" d="M19.5673 0.457259C19.281 0.0331865 18.7075 -0.0752471 18.2901 0.221067C17.8759 0.518454 17.7732 1.10464 18.0605 1.52871C19.4174 3.52776 20.165 6.18169 20.165 8.9999C20.165 11.8192 19.4174 14.4731 18.0605 16.4722C17.7732 16.8973 17.8759 17.4824 18.2912 17.7798C18.4464 17.8893 18.6267 17.9473 18.8134 17.9473C19.1143 17.9473 19.3964 17.7959 19.5673 17.5436C21.136 15.2343 22 12.2003 22 8.9999C22 5.80164 21.136 2.76657 19.5673 0.457259" fill="#2D70FD"/>
</svg>
