<svg width="34" height="30" viewBox="0 0 34 30" fill="none" xmlns="http://www.w3.org/2000/svg">
<path opacity="0.4" d="M33.6665 21.5671C33.6665 26.2171 29.9332 29.9837 25.2832 30.0004H25.2665H8.74986C4.11652 30.0004 0.333191 26.2504 0.333191 21.6004V21.5837C0.333191 21.5837 0.343191 14.2071 0.356524 10.4971C0.358191 9.80041 1.15819 9.41041 1.70319 9.84374C5.66319 12.9854 12.7449 18.7137 12.8332 18.7887C14.0165 19.7371 15.5165 20.2721 17.0499 20.2721C18.5832 20.2721 20.0832 19.7371 21.2665 18.7704C21.3549 18.7121 28.2782 13.1554 32.2982 9.96207C32.8449 9.52707 33.6482 9.91707 33.6499 10.6121C33.6665 14.2937 33.6665 21.5671 33.6665 21.5671Z" fill="white"/>
<path d="M32.7933 4.45593C31.35 1.73593 28.51 -0.000732422 25.3833 -0.000732422H8.75001C5.62334 -0.000732422 2.78334 1.73593 1.34001 4.45593C1.01668 5.06427 1.17001 5.8226 1.70834 6.2526L14.0833 16.1509C14.95 16.8509 16 17.1993 17.05 17.1993C17.0567 17.1993 17.0617 17.1993 17.0667 17.1993C17.0717 17.1993 17.0783 17.1993 17.0833 17.1993C18.1333 17.1993 19.1833 16.8509 20.05 16.1509L32.425 6.2526C32.9633 5.8226 33.1167 5.06427 32.7933 4.45593Z" fill="white"/>
</svg>
