<svg width="34" height="34" viewBox="0 0 34 34" fill="none" xmlns="http://www.w3.org/2000/svg">
<path opacity="0.4" d="M17.0333 0.333252C7.35 0.333252 0.333336 8.23325 0.333336 16.9999C0.333336 19.7999 1.15 22.6833 2.58334 25.3166C2.85 25.7499 2.88334 26.2999 2.7 26.8166L1.58334 30.5499C1.33334 31.4499 2.1 32.1166 2.95 31.8499L6.31667 30.8499C7.23334 30.5499 7.95 30.9333 8.80167 31.4499C11.235 32.8833 14.2667 33.6166 17 33.6166C25.2667 33.6166 33.6667 27.2333 33.6667 16.9499C33.6667 8.08325 26.5 0.333252 17.0333 0.333252" fill="white"/>
<path fill-rule="evenodd" clip-rule="evenodd" d="M16.9677 19.1502C15.7844 19.1335 14.8344 18.1835 14.8344 17.0002C14.8344 15.8335 15.801 14.8668 16.9677 14.8835C18.151 14.8835 19.101 15.8335 19.101 17.0168C19.101 18.1835 18.151 19.1502 16.9677 19.1502ZM9.28354 19.1502C8.11687 19.1502 7.15021 18.1835 7.15021 17.0169C7.15021 15.8335 8.10021 14.8835 9.28354 14.8835C10.4669 14.8835 11.4169 15.8335 11.4169 17.0169C11.4169 18.1835 10.4669 19.1335 9.28354 19.1502ZM22.5174 17.0168C22.5174 18.1835 23.4674 19.1502 24.6508 19.1502C25.8341 19.1502 26.7841 18.1835 26.7841 17.0168C26.7841 15.8335 25.8341 14.8835 24.6508 14.8835C23.4674 14.8835 22.5174 15.8335 22.5174 17.0168Z" fill="white"/>
</svg>
