<svg width="48" height="148" viewBox="0 0 48 148" fill="none" xmlns="http://www.w3.org/2000/svg">
<path d="M24 148L24 0" stroke="#2D70FD" stroke-opacity="0.07" stroke-width="48"/>
<path d="M26 141.833C26 140.729 25.1046 139.833 24 139.833C22.8954 139.833 22 140.729 22 141.833L26 141.833ZM22 129.5C22 130.605 22.8954 131.5 24 131.5C25.1046 131.5 26 130.605 26 129.5L22 129.5ZM26 117.167C26 116.062 25.1046 115.167 24 115.167C22.8954 115.167 22 116.062 22 117.167L26 117.167ZM22 104.833C22 105.938 22.8954 106.833 24 106.833C25.1046 106.833 26 105.938 26 104.833L22 104.833ZM26 92.5C26 91.3954 25.1046 90.5 24 90.5C22.8954 90.5 22 91.3954 22 92.5L26 92.5ZM22 80.1667C22 81.2712 22.8954 82.1667 24 82.1667C25.1046 82.1667 26 81.2712 26 80.1667L22 80.1667ZM26 67.8333C26 66.7288 25.1046 65.8333 24 65.8333C22.8954 65.8333 22 66.7288 22 67.8333L26 67.8333ZM22 55.5C22 56.6046 22.8954 57.5 24 57.5C25.1046 57.5 26 56.6046 26 55.5L22 55.5ZM26 43.1667C26 42.0621 25.1046 41.1667 24 41.1667C22.8954 41.1667 22 42.0621 22 43.1667L26 43.1667ZM22 30.8333C22 31.9379 22.8954 32.8333 24 32.8333C25.1046 32.8333 26 31.9379 26 30.8333L22 30.8333ZM26 18.5C26 17.3954 25.1046 16.5 24 16.5C22.8954 16.5 22 17.3954 22 18.5L26 18.5ZM22 6.16667C22 7.27124 22.8954 8.16667 24 8.16667C25.1046 8.16667 26 7.27124 26 6.16667L22 6.16667ZM26 148L26 141.833L22 141.833L22 148L26 148ZM26 129.5L26 117.167L22 117.167L22 129.5L26 129.5ZM26 104.833L26 92.5L22 92.5L22 104.833L26 104.833ZM26 80.1667L26 67.8333L22 67.8333L22 80.1667L26 80.1667ZM26 55.5L26 43.1667L22 43.1667L22 55.5L26 55.5ZM26 30.8333L26 18.5L22 18.5L22 30.8333L26 30.8333ZM26 6.16667L26 -1.81993e-06L22 -1.99477e-06L22 6.16667L26 6.16667Z" fill="#2D70FD" fill-opacity="0.12"/>
</svg>
