<svg width="317" height="393" viewBox="0 0 317 393" fill="none" xmlns="http://www.w3.org/2000/svg">
<path d="M0.272121 245.095C0.769798 235.38 8.59562 227.677 18.3171 227.332C24.4631 227.113 30.0747 227.113 36.2206 227.332C45.9421 227.677 53.7678 235.38 54.2655 245.095C54.427 248.247 54.5376 251.433 54.5376 254.243C54.5376 257.172 54.4174 260.507 54.2448 263.788C53.743 273.32 46.1805 280.894 36.6487 281.399C33.4227 281.57 30.1481 281.688 27.2688 281.688C24.3896 281.688 21.115 281.57 17.889 281.399C8.35712 280.894 0.794622 273.32 0.292883 263.788C0.120199 260.507 2.27104e-07 257.172 0 254.243C-2.17887e-07 251.433 0.110641 248.247 0.272121 245.095Z" fill="#36C5F0" fill-opacity="0.2"/>
<path d="M18.3349 227.831C24.469 227.613 30.0687 227.613 36.2029 227.831C45.6652 228.168 53.2818 235.665 53.7662 245.121C53.9274 248.268 54.0376 251.444 54.0376 254.243C54.0376 257.159 53.9179 260.485 53.7454 263.761C53.2571 273.038 45.8983 280.408 36.6222 280.899C33.4008 281.07 30.1358 281.188 27.2688 281.188C24.4018 281.188 21.1369 281.07 17.9154 280.899C8.63929 280.408 1.2805 273.038 0.792191 263.761C0.619745 260.485 0.5 257.159 0.5 254.243C0.5 251.444 0.610217 248.268 0.771467 245.121C1.25587 235.665 8.87253 228.168 18.3349 227.831Z" stroke="#36C5F0" stroke-opacity="0.1"/>
<g clip-path="url(#clip0_70_22)">
<path d="M20.4517 259.88H27.2689H34.0861" stroke="#36C5F0" stroke-width="1.5" stroke-linecap="round" stroke-linejoin="round"/>
<path d="M23.1785 251.95L25.7349 254.428L31.3591 248.976" stroke="#36C5F0" stroke-width="1.5" stroke-linecap="round" stroke-linejoin="round"/>
<path d="M35.5399 242.161H18.9979C16.7888 242.161 14.9979 243.952 14.9979 246.161V262.695C14.9979 264.904 16.7888 266.695 18.9979 266.695H35.5399C37.749 266.695 39.5399 264.904 39.5399 262.695V246.161C39.5399 243.952 37.749 242.161 35.5399 242.161Z" stroke="#36C5F0" stroke-width="1.5" stroke-linecap="round" stroke-linejoin="round"/>
</g>
<ellipse cx="49.9928" cy="277.145" rx="13.6344" ry="13.6301" fill="white"/>
<path d="M63.1272 277.145C63.1272 284.396 57.2469 290.275 49.9928 290.275C42.7387 290.275 36.8584 284.396 36.8584 277.145C36.8584 269.893 42.7387 264.015 49.9928 264.015C57.2469 264.015 63.1272 269.893 63.1272 277.145Z" stroke="#00D8A7" stroke-opacity="0.3"/>
<g clip-path="url(#clip1_70_22)">
<path d="M48.3725 280.933C48.2536 280.904 48.1283 280.916 48.019 280.971L46.3017 281.829C45.941 282.01 45.5261 281.711 45.5832 281.311L45.7807 279.929C45.8048 279.761 45.7402 279.593 45.6178 279.475C44.8023 278.688 44.312 277.678 44.312 276.577C44.312 274.068 46.8555 272.033 49.993 272.033C53.1305 272.033 55.674 274.068 55.674 276.577C55.674 279.086 53.1305 281.12 49.993 281.12C49.43 281.12 48.886 281.055 48.3725 280.933Z" stroke="#00D8A7" stroke-linecap="round" stroke-linejoin="round"/>
</g>
<path d="M34.3582 96.3003C34.8559 86.5854 42.6817 78.8825 52.4032 78.5367C58.5491 78.3182 64.1607 78.3182 70.3067 78.5368C80.0281 78.8825 87.8539 86.5855 88.3516 96.3003C88.5131 99.4525 88.6237 102.638 88.6237 105.448C88.6237 108.377 88.5035 111.712 88.3308 114.993C87.8291 124.525 80.2666 132.099 70.7347 132.604C67.5087 132.775 64.2341 132.893 61.3549 132.893C58.4757 132.893 55.201 132.775 51.975 132.604C42.4432 132.099 34.8807 124.525 34.3789 114.993C34.2063 111.712 34.0861 108.377 34.0861 105.448C34.0861 102.638 34.1967 99.4525 34.3582 96.3003Z" fill="#2D70FD" fill-opacity="0.2"/>
<path d="M52.4209 79.0364C58.555 78.8183 64.1548 78.8183 70.2889 79.0364C79.7512 79.373 87.3678 86.8701 87.8522 96.3259C88.0135 99.4735 88.1237 102.649 88.1237 105.448C88.1237 108.365 88.004 111.69 87.8315 114.967C87.3432 124.243 79.9844 131.613 70.7083 132.104C67.4868 132.275 64.2219 132.393 61.3549 132.393C58.4879 132.393 55.2229 132.275 52.0015 132.104C42.7254 131.613 35.3666 124.243 34.8783 114.967C34.7058 111.69 34.5861 108.365 34.5861 105.448C34.5861 102.649 34.6963 99.4735 34.8575 96.3259C35.3419 86.8701 42.9586 79.3729 52.4209 79.0364Z" stroke="#2D70FD" stroke-opacity="0.1"/>
<path d="M57.93 113.164C57.8115 113.134 57.6861 113.146 57.5768 113.201L53.1191 115.429C52.7583 115.609 52.3435 115.31 52.4006 114.911L52.9692 110.932C52.9932 110.764 52.9294 110.595 52.8038 110.48C51.0538 108.882 49.9932 106.789 49.9932 104.497C49.9932 99.4787 55.0801 95.4104 61.3552 95.4104C67.6302 95.4104 72.7172 99.4787 72.7172 104.497C72.7172 109.516 67.6302 113.584 61.3552 113.584C60.1615 113.584 59.0108 113.437 57.93 113.164Z" stroke="#2D70FD" stroke-width="1.5" stroke-linecap="round" stroke-linejoin="round"/>
<ellipse cx="84.0789" cy="128.35" rx="13.6344" ry="13.6301" fill="white"/>
<path d="M97.2133 128.35C97.2133 135.601 91.3329 141.48 84.0789 141.48C76.8248 141.48 70.9445 135.601 70.9445 128.35C70.9445 121.098 76.8248 115.22 84.0789 115.22C91.3329 115.22 97.2133 121.098 97.2133 128.35Z" stroke="#36C5F0" stroke-opacity="0.3"/>
<path d="M80.1263 130.148C80.1263 130.936 79.4823 131.58 78.694 131.58C77.9057 131.58 77.2617 130.936 77.2617 130.148C77.2617 129.36 77.9057 128.716 78.694 128.716H80.1263V130.148Z" fill="#E01E5A"/>
<path d="M80.849 130.148C80.849 129.36 81.493 128.716 82.2813 128.716C83.0696 128.716 83.7136 129.36 83.7136 130.148V133.733C83.7136 134.521 83.0696 135.165 82.2813 135.165C81.493 135.165 80.849 134.521 80.849 133.733V130.148Z" fill="#E01E5A"/>
<path d="M82.2814 124.398C81.4931 124.398 80.8491 123.755 80.8491 122.967C80.8491 122.178 81.4931 121.535 82.2814 121.535C83.0698 121.535 83.7137 122.178 83.7137 122.967V124.398H82.2814Z" fill="#36C5F0"/>
<path d="M82.2803 125.12C83.0687 125.12 83.7126 125.764 83.7126 126.552C83.7126 127.34 83.0687 127.984 82.2803 127.984H78.694C77.9057 127.984 77.2617 127.34 77.2617 126.552C77.2617 125.764 77.9057 125.12 78.694 125.12H82.2803Z" fill="#36C5F0"/>
<path d="M88.0304 126.552C88.0304 125.764 88.6744 125.12 89.4627 125.12C90.251 125.12 90.895 125.764 90.895 126.552C90.895 127.34 90.251 127.984 89.4627 127.984H88.0304V126.552Z" fill="#2EB67D"/>
<path d="M87.3094 126.552C87.3094 127.34 86.6654 127.984 85.8771 127.984C85.0888 127.984 84.4448 127.34 84.4448 126.552V122.967C84.4448 122.178 85.0888 121.535 85.8771 121.535C86.6654 121.535 87.3094 122.178 87.3094 122.967V126.552Z" fill="#2EB67D"/>
<path d="M85.8771 132.301C86.6654 132.301 87.3094 132.945 87.3094 133.733C87.3094 134.521 86.6654 135.165 85.8771 135.165C85.0888 135.165 84.4448 134.521 84.4448 133.733V132.301H85.8771Z" fill="#ECB22E"/>
<path d="M85.8771 131.58C85.0888 131.58 84.4448 130.936 84.4448 130.148C84.4448 129.36 85.0888 128.716 85.8771 128.716H89.4634C90.2518 128.716 90.8957 129.36 90.8957 130.148C90.8957 130.936 90.2518 131.58 89.4634 131.58H85.8771Z" fill="#ECB22E"/>
<path d="M253.645 299.615C254.143 289.901 261.968 282.198 271.69 281.852C277.836 281.633 283.447 281.633 289.593 281.852C299.315 282.198 307.141 289.901 307.638 299.615C307.8 302.768 307.91 305.953 307.91 308.763C307.91 311.692 307.79 315.027 307.617 318.308C307.116 327.84 299.553 335.414 290.021 335.919C286.795 336.09 283.521 336.208 280.642 336.208C277.762 336.208 274.488 336.09 271.262 335.919C261.73 335.414 254.167 327.84 253.666 318.308C253.493 315.027 253.373 311.692 253.373 308.763C253.373 305.953 253.483 302.768 253.645 299.615Z" fill="#FFD166" fill-opacity="0.2"/>
<path d="M271.708 282.352C277.842 282.133 283.441 282.133 289.576 282.352C299.038 282.688 306.655 290.185 307.139 299.641C307.3 302.789 307.41 305.965 307.41 308.763C307.41 311.68 307.291 315.006 307.118 318.282C306.63 327.559 299.271 334.928 289.995 335.42C286.774 335.59 283.509 335.708 280.642 335.708C277.775 335.708 274.51 335.59 271.288 335.42C262.012 334.928 254.653 327.559 254.165 318.282C253.992 315.006 253.873 311.68 253.873 308.763C253.873 305.965 253.983 302.789 254.144 299.641C254.629 290.185 262.245 282.688 271.708 282.352Z" stroke="#FFD166" stroke-opacity="0.1"/>
<path d="M283.051 311.357L275.016 314.57L278.231 306.539L286.265 303.326L283.051 311.357Z" stroke="#FFD166" stroke-width="1.5" stroke-linecap="round" stroke-linejoin="round"/>
<path d="M280.642 320.307C286.917 320.307 292.004 315.221 292.004 308.948C292.004 302.675 286.917 297.59 280.642 297.59C274.366 297.59 269.28 302.675 269.28 308.948C269.28 315.221 274.366 320.307 280.642 320.307Z" stroke="#FFD166" stroke-width="1.5" stroke-linecap="round" stroke-linejoin="round"/>
<ellipse cx="303.366" cy="331.665" rx="13.6344" ry="13.6301" fill="white"/>
<path d="M316.5 331.665C316.5 338.916 310.62 344.795 303.366 344.795C296.111 344.795 290.231 338.916 290.231 331.665C290.231 324.414 296.111 318.535 303.366 318.535C310.62 318.535 316.5 324.414 316.5 331.665Z" stroke="#FF9C54" stroke-opacity="0.3"/>
<path d="M303.366 325.986L308.478 328.825V334.504L303.366 337.344L298.253 334.504V328.825L303.366 325.986Z" stroke="#FF9C54" stroke-linecap="round" stroke-linejoin="round"/>
<path d="M298.253 328.825L303.366 331.665L308.478 328.825" stroke="#FF9C54" stroke-linecap="round" stroke-linejoin="round"/>
<path d="M303.366 331.665V337.344" stroke="#FF9C54" stroke-linecap="round" stroke-linejoin="round"/>
<path d="M84.351 347.321C84.8487 337.606 92.6745 329.903 102.396 329.557C108.542 329.338 114.154 329.338 120.299 329.557C130.021 329.903 137.847 337.606 138.344 347.321C138.506 350.473 138.616 353.658 138.616 356.468C138.616 359.397 138.496 362.732 138.324 366.013C137.822 375.545 130.259 383.119 120.728 383.624C117.502 383.795 114.227 383.913 111.348 383.913C108.468 383.913 105.194 383.795 101.968 383.624C92.436 383.119 84.8735 375.545 84.3717 366.013C84.1991 362.732 84.0789 359.397 84.0789 356.468C84.0789 353.658 84.1895 350.473 84.351 347.321Z" fill="#FF9C54" fill-opacity="0.2"/>
<path d="M102.414 330.057C108.548 329.839 114.148 329.839 120.282 330.057C129.744 330.393 137.361 337.89 137.845 347.346C138.006 350.494 138.116 353.67 138.116 356.468C138.116 359.385 137.997 362.711 137.824 365.987C137.336 375.264 129.977 382.633 120.701 383.125C117.48 383.295 114.215 383.413 111.348 383.413C108.481 383.413 105.216 383.295 101.994 383.125C92.7182 382.633 85.3594 375.264 84.871 365.987C84.6986 362.711 84.5789 359.385 84.5789 356.468C84.5789 353.67 84.6891 350.494 84.8503 347.346C85.3347 337.89 92.9514 330.393 102.414 330.057Z" stroke="#FF9C54" stroke-opacity="0.1"/>
<ellipse cx="134.072" cy="379.37" rx="13.6344" ry="13.6301" fill="white"/>
<path d="M147.206 379.37C147.206 386.621 141.326 392.5 134.072 392.5C126.818 392.5 120.937 386.621 120.937 379.37C120.937 372.119 126.818 366.24 134.072 366.24C141.326 366.24 147.206 372.119 147.206 379.37Z" stroke="#FFD166" stroke-opacity="0.3"/>
<path d="M112.484 346.431V352.246C112.484 352.798 112.931 353.246 113.484 353.246H119.301" stroke="#FF9C54" stroke-width="1.5" stroke-linecap="round" stroke-linejoin="round"/>
<path d="M112.07 346.431C112.335 346.431 112.589 346.536 112.777 346.723L119.008 352.953C119.196 353.14 119.301 353.395 119.301 353.66V365.876C119.301 366.428 118.853 366.876 118.301 366.876H104.394C103.842 366.876 103.394 366.428 103.394 365.876V347.431C103.394 346.878 103.842 346.431 104.394 346.431H112.07Z" stroke="#FF9C54" stroke-width="1.5" stroke-linecap="round" stroke-linejoin="round"/>
<g clip-path="url(#clip2_70_22)">
<path d="M135.045 380.343L131.799 381.642L133.098 378.397L136.344 377.098L135.045 380.343Z" stroke="#FFD166" stroke-linecap="round" stroke-linejoin="round"/>
<path d="M134.072 385.049C137.209 385.049 139.753 382.506 139.753 379.37C139.753 376.233 137.209 373.691 134.072 373.691C130.934 373.691 128.391 376.233 128.391 379.37C128.391 382.506 130.934 385.049 134.072 385.049Z" stroke="#FFD166" stroke-linecap="round" stroke-linejoin="round"/>
</g>
<path d="M244.555 17.9275C245.053 8.21261 252.879 0.509665 262.6 0.163926C268.746 -0.0546512 274.358 -0.0546432 280.504 0.163957C290.225 0.509729 298.051 8.21265 298.549 17.9275C298.71 21.0797 298.821 24.2648 298.821 27.0749C298.821 30.0039 298.701 33.3394 298.528 36.62C298.026 46.152 290.464 53.726 280.932 54.2309C277.706 54.4018 274.431 54.5202 271.552 54.5202C268.673 54.5202 265.398 54.4018 262.172 54.2309C252.64 53.726 245.078 46.152 244.576 36.62C244.403 33.3394 244.283 30.0039 244.283 27.0749C244.283 24.2648 244.394 21.0797 244.555 17.9275Z" fill="#00D8A7" fill-opacity="0.2"/>
<path d="M262.618 0.66361C268.752 0.445454 274.352 0.445462 280.486 0.663641C289.948 1.0002 297.565 8.4973 298.049 17.9531C298.211 21.1007 298.321 24.2766 298.321 27.0749C298.321 29.9917 298.201 33.3176 298.029 36.5937C297.54 45.8707 290.181 53.2403 280.905 53.7316C277.684 53.9022 274.419 54.0202 271.552 54.0202C268.685 54.0202 265.42 53.9022 262.199 53.7316C252.922 53.2403 245.564 45.8707 245.075 36.5937C244.903 33.3176 244.783 29.9917 244.783 27.0749C244.783 24.2766 244.893 21.1007 245.055 17.9531C245.539 8.49726 253.156 1.00013 262.618 0.66361Z" stroke="#00D8A7" stroke-opacity="0.1"/>
<ellipse cx="294.276" cy="49.977" rx="13.6344" ry="13.6301" fill="white"/>
<path d="M307.41 49.977C307.41 57.2284 301.53 63.107 294.276 63.107C287.022 63.107 281.142 57.2284 281.142 49.977C281.142 42.7256 287.022 36.8469 294.276 36.8469C301.53 36.8469 307.41 42.7256 307.41 49.977Z" stroke="#1F8DED" stroke-opacity="0.3"/>
<path d="M268.127 34.7908C268.009 34.7609 267.883 34.7733 267.774 34.8279L263.316 37.0561C262.955 37.2364 262.541 36.9373 262.598 36.5381L263.166 32.5591C263.19 32.3907 263.126 32.2223 263.001 32.1076C261.251 30.5091 260.19 28.4158 260.19 26.1243C260.19 21.1059 265.277 17.0376 271.552 17.0376C277.827 17.0376 282.914 21.1059 282.914 26.1243C282.914 31.1428 277.827 35.211 271.552 35.211C270.359 35.211 269.208 35.0638 268.127 34.7908Z" stroke="#00D8A7" stroke-width="1.5" stroke-linecap="round" stroke-linejoin="round"/>
<path d="M287.459 49.9769C287.459 46.2131 290.511 43.1619 294.276 43.1619C298.041 43.1619 301.093 46.2131 301.093 49.9769C301.093 53.7407 298.041 56.7919 294.276 56.7919C290.511 56.7919 287.459 53.7407 287.459 49.9769Z" fill="#1F8DED"/>
<path fill-rule="evenodd" clip-rule="evenodd" d="M293.966 46.8791C293.966 46.708 294.105 46.5693 294.276 46.5693C294.447 46.5693 294.586 46.708 294.586 46.8791V51.3708C294.586 51.5419 294.447 51.6806 294.276 51.6806C294.105 51.6806 293.966 51.5419 293.966 51.3708V46.8791ZM292.727 46.7261C292.555 46.7261 292.417 46.8648 292.417 47.0359V51.1743C292.417 51.3454 292.555 51.4841 292.727 51.4841C292.898 51.4841 293.036 51.3454 293.036 51.1743V47.0359C293.036 46.8648 292.898 46.7261 292.727 46.7261ZM297.375 50.7513C297.546 50.7513 297.685 50.6126 297.685 50.4415V47.6554C297.685 47.4843 297.546 47.3456 297.375 47.3456C297.204 47.3456 297.065 47.4843 297.065 47.6554V50.4415C297.065 50.6126 297.204 50.7513 297.375 50.7513ZM294.276 53.3844C296.381 53.3844 297.529 52.4214 297.576 52.3805C297.706 52.2691 297.721 52.0736 297.61 51.9436C297.499 51.8137 297.303 51.7987 297.173 51.9101C297.163 51.9186 296.154 52.7648 294.276 52.7648C292.421 52.7648 291.396 51.9246 291.378 51.9095C291.248 51.7986 291.053 51.814 290.942 51.9436C290.831 52.0736 290.846 52.2691 290.976 52.3805C291.023 52.4214 292.171 53.3844 294.276 53.3844ZM290.867 47.6554C290.867 47.4843 291.006 47.3456 291.177 47.3456C291.348 47.3456 291.487 47.4843 291.487 47.6554V50.4415C291.487 50.6126 291.348 50.7513 291.177 50.7513C291.006 50.7513 290.867 50.6126 290.867 50.4415V47.6554ZM295.825 46.7261C295.654 46.7261 295.516 46.8648 295.516 47.0359V51.1743C295.516 51.3454 295.654 51.4841 295.825 51.4841C295.997 51.4841 296.135 51.3454 296.135 51.1743V47.0359C296.135 46.8648 295.997 46.7261 295.825 46.7261Z" fill="white"/>
<defs>
<clipPath id="clip0_70_22">
<rect width="27.2688" height="27.2601" fill="white" transform="translate(13.6344 240.798)"/>
</clipPath>
<clipPath id="clip1_70_22">
<rect width="13.6344" height="13.6301" fill="white" transform="translate(43.1757 270.33)"/>
</clipPath>
<clipPath id="clip2_70_22">
<rect width="13.6344" height="13.6301" fill="white" transform="translate(127.255 372.555)"/>
</clipPath>
</defs>
</svg>
