<svg width="56" height="56" viewBox="0 0 56 56" fill="none" xmlns="http://www.w3.org/2000/svg">
<path d="M0.145062 17.7951C0.557336 8.07618 8.41524 0.344989 18.1393 0.0809146C22.1123 -0.0269778 25.8878 -0.0269719 29.8608 0.0809346C39.5848 0.345042 47.4427 8.07621 47.8549 17.7951C47.944 19.8945 48 21.9607 48 23.8369C48 25.8326 47.9366 28.0427 47.8375 30.2788C47.4149 39.8147 39.8247 47.4178 30.2889 47.8413C28.1053 47.9383 25.9497 48 24 48C22.0504 48 19.8947 47.9383 17.7111 47.8413C8.17527 47.4178 0.585067 39.8146 0.162462 30.2788C0.0633626 28.0427 1.5469e-07 25.8326 0 23.8369C-1.45434e-07 21.9607 0.0560061 19.8945 0.145062 17.7951Z" fill="#00D8A7" fill-opacity="0.2"/>
<path d="M0.644612 17.8163C1.04574 8.36008 8.69109 0.837682 18.1529 0.58073C22.1168 0.473084 25.8833 0.47309 29.8472 0.58075C39.309 0.837734 46.9543 8.36011 47.3554 17.8163C47.4443 19.9112 47.5 21.9699 47.5 23.8369C47.5 25.8229 47.4369 28.0251 47.338 30.2567C46.9269 39.5342 39.5434 46.9298 30.2668 47.3418C28.0877 47.4386 25.9399 47.5 24 47.5C22.0601 47.5 19.9123 47.4386 17.7332 47.3418C8.45662 46.9298 1.07313 39.5342 0.661972 30.2567C0.563072 28.0251 0.5 25.8229 0.5 23.8369C0.5 21.9699 0.555746 19.9112 0.644612 17.8163Z" stroke="#00D8A7" stroke-opacity="0.1"/>
<circle cx="44" cy="44" r="12" fill="white"/>
<circle cx="44" cy="44" r="11.5" stroke="#1F8DED" stroke-opacity="0.3"/>
<path d="M21.0078 30.6356C20.8893 30.6059 20.7638 30.6182 20.6545 30.6729L16.8538 32.5732C16.4931 32.7536 16.0782 32.4546 16.1353 32.0553L16.6149 28.6975C16.639 28.5291 16.575 28.3608 16.4499 28.2456C14.924 26.8412 14.0003 25.0069 14.0003 23C14.0003 18.5817 18.4775 15 24.0003 15C29.5232 15 34.0003 18.5817 34.0003 23C34.0003 27.4183 29.5232 31 24.0003 31C22.9579 31 21.9527 30.8724 21.0078 30.6356Z" stroke="#00D8A7" stroke-width="1.5" stroke-linecap="round" stroke-linejoin="round"/>
<path d="M38 44C38 40.6863 40.6863 38 44 38C47.3137 38 50 40.6863 50 44C50 47.3137 47.3137 50 44 50C40.6863 50 38 47.3137 38 44Z" fill="#1F8DED"/>
<path fill-rule="evenodd" clip-rule="evenodd" d="M43.7274 41.2727C43.7274 41.1221 43.8495 41 44.0001 41C44.1507 41 44.2728 41.1221 44.2728 41.2727V45.2273C44.2728 45.3779 44.1507 45.5 44.0001 45.5C43.8495 45.5 43.7274 45.3779 43.7274 45.2273V41.2727ZM42.6363 41.138C42.4857 41.138 42.3636 41.2601 42.3636 41.4107V45.0542C42.3636 45.2048 42.4857 45.327 42.6363 45.327C42.7869 45.327 42.909 45.2048 42.909 45.0542V41.4107C42.909 41.2601 42.7869 41.138 42.6363 41.138ZM46.7273 44.6818C46.8779 44.6818 47 44.5597 47 44.4091V41.9562C47 41.8056 46.8779 41.6835 46.7273 41.6835C46.5766 41.6835 46.4545 41.8056 46.4545 41.9562V44.4091C46.4545 44.5597 46.5766 44.6818 46.7273 44.6818ZM44 47C45.8524 47 46.8627 46.1522 46.9048 46.1162C47.0192 46.0181 47.0324 45.846 46.9343 45.7315C46.8364 45.6171 46.6639 45.604 46.5497 45.702C46.541 45.7095 45.6527 46.4545 44 46.4545C42.3677 46.4545 41.4656 45.7148 41.4496 45.7015C41.3352 45.6039 41.1634 45.6174 41.0657 45.7315C40.9676 45.846 40.9809 46.0181 41.0952 46.1162C41.1373 46.1522 42.1476 47 44 47ZM41 41.9562C41 41.8056 41.1221 41.6835 41.2727 41.6835C41.4234 41.6835 41.5455 41.8056 41.5455 41.9562V44.4091C41.5455 44.5597 41.4234 44.6818 41.2727 44.6818C41.1221 44.6818 41 44.5597 41 44.4091V41.9562ZM45.3637 41.138C45.2131 41.138 45.091 41.2601 45.091 41.4107V45.0542C45.091 45.2048 45.2131 45.327 45.3637 45.327C45.5143 45.327 45.6364 45.2048 45.6364 45.0542V41.4107C45.6364 41.2601 45.5143 41.138 45.3637 41.138Z" fill="white"/>
</svg>
