<svg width="56" height="56" viewBox="0 0 56 56" fill="none" xmlns="http://www.w3.org/2000/svg">
<path d="M0.145062 17.7951C0.557336 8.07618 8.41524 0.344989 18.1393 0.0809146C22.1123 -0.0269778 25.8878 -0.0269719 29.8608 0.0809346C39.5848 0.345042 47.4427 8.07621 47.8549 17.7951C47.944 19.8945 48 21.9607 48 23.8369C48 25.8326 47.9366 28.0427 47.8375 30.2788C47.4149 39.8147 39.8247 47.4178 30.2889 47.8413C28.1053 47.9383 25.9497 48 24 48C22.0504 48 19.8947 47.9383 17.7111 47.8413C8.17527 47.4178 0.585067 39.8146 0.162462 30.2788C0.0633626 28.0427 1.5469e-07 25.8326 0 23.8369C-1.45434e-07 21.9607 0.0560061 19.8945 0.145062 17.7951Z" fill="#A259FF" fill-opacity="0.2"/>
<path d="M0.644612 17.8163C1.04574 8.36008 8.69109 0.837682 18.1529 0.58073C22.1168 0.473084 25.8833 0.47309 29.8472 0.58075C39.309 0.837734 46.9543 8.36011 47.3554 17.8163C47.4443 19.9112 47.5 21.9699 47.5 23.8369C47.5 25.8229 47.4369 28.0251 47.338 30.2567C46.9269 39.5342 39.5434 46.9298 30.2668 47.3418C28.0877 47.4386 25.9399 47.5 24 47.5C22.0601 47.5 19.9123 47.4386 17.7332 47.3418C8.45662 46.9298 1.07313 39.5342 0.661972 30.2567C0.563072 28.0251 0.5 25.8229 0.5 23.8369C0.5 21.9699 0.555746 19.9112 0.644612 17.8163Z" stroke="#A259FF" stroke-opacity="0.1"/>
<g clip-path="url(#clip0_1010_237)">
<path d="M18 28.8H24H30" stroke="#A259FF" stroke-width="1.5" stroke-linecap="round" stroke-linejoin="round"/>
<path d="M20.4 21.8181L22.65 24L27.6 19.2" stroke="#A259FF" stroke-width="1.5" stroke-linecap="round" stroke-linejoin="round"/>
<path d="M30.8 13.2H17.2C14.9909 13.2 13.2 14.9908 13.2 17.2V30.7999C13.2 33.0091 14.9909 34.7999 17.2 34.7999H30.8C33.0091 34.7999 34.8 33.0091 34.8 30.7999V17.2C34.8 14.9908 33.0091 13.2 30.8 13.2Z" stroke="#A259FF" stroke-width="1.5" stroke-linecap="round" stroke-linejoin="round"/>
</g>
<circle cx="44" cy="44" r="12" fill="white"/>
<circle cx="44" cy="44" r="11.5" stroke="#FF9C54" stroke-opacity="0.3"/>
<path d="M44.4999 39.5V41.5C44.4999 42.0523 44.9477 42.5 45.4999 42.5H47.4999" stroke="#FF9C54" stroke-linecap="round" stroke-linejoin="round"/>
<path d="M44.0858 39.5C44.3511 39.5 44.6054 39.6054 44.793 39.7929L47.2072 42.2071C47.3947 42.3946 47.5001 42.649 47.5001 42.9142V47.5C47.5001 48.0523 47.0523 48.5 46.5001 48.5H41.5001C40.9478 48.5 40.5001 48.0523 40.5001 47.5V40.5C40.5001 39.9477 40.9478 39.5 41.5001 39.5H44.0858Z" stroke="#FF9C54" stroke-linecap="round" stroke-linejoin="round"/>
<defs>
<clipPath id="clip0_1010_237">
<rect width="24" height="24" fill="white" transform="translate(12 12)"/>
</clipPath>
</defs>
</svg>
