<svg width="56" height="56" viewBox="0 0 56 56" fill="none" xmlns="http://www.w3.org/2000/svg">
<path d="M0.145062 17.7951C0.557336 8.07618 8.41524 0.344989 18.1393 0.0809146C22.1123 -0.0269778 25.8878 -0.0269719 29.8608 0.0809346C39.5848 0.345042 47.4427 8.07621 47.8549 17.7951C47.944 19.8945 48 21.9607 48 23.8369C48 25.8326 47.9366 28.0427 47.8375 30.2788C47.4149 39.8147 39.8247 47.4178 30.2889 47.8413C28.1053 47.9383 25.9497 48 24 48C22.0504 48 19.8947 47.9383 17.7111 47.8413C8.17527 47.4178 0.585067 39.8146 0.162462 30.2788C0.0633626 28.0427 1.5469e-07 25.8326 0 23.8369C-1.45434e-07 21.9607 0.0560061 19.8945 0.145062 17.7951Z" fill="#36C5F0" fill-opacity="0.2"/>
<path d="M18.1529 0.58073C22.1168 0.473084 25.8833 0.47309 29.8472 0.58075C39.309 0.837734 46.9543 8.36011 47.3554 17.8163C47.4443 19.9112 47.5 21.9699 47.5 23.8369C47.5 25.8229 47.4369 28.0251 47.338 30.2567C46.9269 39.5342 39.5434 46.9298 30.2668 47.3418C28.0877 47.4386 25.9399 47.5 24 47.5C22.0601 47.5 19.9123 47.4386 17.7332 47.3418C8.45662 46.9298 1.07313 39.5342 0.661972 30.2567C0.563072 28.0251 0.5 25.8229 0.5 23.8369C0.5 21.9699 0.555746 19.9112 0.644612 17.8163C1.04574 8.36008 8.69109 0.837682 18.1529 0.58073Z" stroke="#36C5F0" stroke-opacity="0.1"/>
<g clip-path="url(#clip0_1010_236)">
<path d="M18 28.8H24H30" stroke="#36C5F0" stroke-width="1.5" stroke-linecap="round" stroke-linejoin="round"/>
<path d="M20.4 21.8181L22.65 24L27.6 19.2" stroke="#36C5F0" stroke-width="1.5" stroke-linecap="round" stroke-linejoin="round"/>
<path d="M30.8 13.2H17.2C14.9909 13.2 13.2 14.9908 13.2 17.2V30.7999C13.2 33.0091 14.9909 34.7999 17.2 34.7999H30.8C33.0091 34.7999 34.8 33.0091 34.8 30.7999V17.2C34.8 14.9908 33.0091 13.2 30.8 13.2Z" stroke="#36C5F0" stroke-width="1.5" stroke-linecap="round" stroke-linejoin="round"/>
</g>
<circle cx="44" cy="44" r="12" fill="white"/>
<circle cx="44" cy="44" r="11.5" stroke="#00D8A7" stroke-opacity="0.3"/>
<path d="M42.5961 47.3401C42.4771 47.3123 42.3517 47.3242 42.2424 47.3789L40.8537 48.0732C40.4929 48.2536 40.0781 47.9546 40.1351 47.5553L40.2882 46.4838C40.3122 46.3154 40.2475 46.1479 40.126 46.0289C39.4223 45.3397 39.0002 44.4593 39.0002 43.5C39.0002 41.2909 41.2387 39.5 44.0002 39.5C46.7616 39.5 49.0002 41.2909 49.0002 43.5C49.0002 45.7091 46.7616 47.5 44.0002 47.5C43.5127 47.5 43.0415 47.4442 42.5961 47.3401Z" stroke="#00D8A7" stroke-linecap="round" stroke-linejoin="round"/>
<defs>
<clipPath id="clip0_1010_236">
<rect width="24" height="24" fill="white" transform="translate(12 12)"/>
</clipPath>
</defs>
</svg>
