<svg width="56" height="56" viewBox="0 0 56 56" fill="none" xmlns="http://www.w3.org/2000/svg">
<path d="M0.145062 17.7951C0.557336 8.07618 8.41524 0.344989 18.1393 0.0809146C22.1123 -0.0269778 25.8878 -0.0269719 29.8608 0.0809346C39.5848 0.345042 47.4427 8.07621 47.8549 17.7951C47.944 19.8945 48 21.9607 48 23.8369C48 25.8326 47.9366 28.0427 47.8375 30.2788C47.4149 39.8147 39.8247 47.4178 30.2889 47.8413C28.1053 47.9383 25.9497 48 24 48C22.0504 48 19.8947 47.9383 17.7111 47.8413C8.17527 47.4178 0.585067 39.8146 0.162462 30.2788C0.0633626 28.0427 1.5469e-07 25.8326 0 23.8369C-1.45434e-07 21.9607 0.0560061 19.8945 0.145062 17.7951Z" fill="#FF9C54" fill-opacity="0.2"/>
<path d="M18.1529 0.58073C22.1168 0.473084 25.8833 0.47309 29.8472 0.58075C39.309 0.837734 46.9543 8.36011 47.3554 17.8163C47.4443 19.9112 47.5 21.9699 47.5 23.8369C47.5 25.8229 47.4369 28.0251 47.338 30.2567C46.9269 39.5342 39.5434 46.9298 30.2668 47.3418C28.0877 47.4386 25.9399 47.5 24 47.5C22.0601 47.5 19.9123 47.4386 17.7332 47.3418C8.45662 46.9298 1.07313 39.5342 0.661972 30.2567C0.563072 28.0251 0.5 25.8229 0.5 23.8369C0.5 21.9699 0.555746 19.9112 0.644612 17.8163C1.04574 8.36008 8.69109 0.837682 18.1529 0.58073Z" stroke="#FF9C54" stroke-opacity="0.1"/>
<circle cx="44" cy="44" r="12" fill="white"/>
<circle cx="44" cy="44" r="11.5" stroke="#FFD166" stroke-opacity="0.3"/>
<path d="M24.9999 15V20C24.9999 20.5523 25.4477 21 25.9999 21H30.9999" stroke="#FF9C54" stroke-width="1.5" stroke-linecap="round" stroke-linejoin="round"/>
<path d="M24.5858 15C24.8511 15 25.1054 15.1054 25.293 15.2929L30.7072 20.7071C30.8947 20.8946 31.0001 21.149 31.0001 21.4142V32C31.0001 32.5523 30.5523 33 30.0001 33H18.0001C17.4478 33 17.0001 32.5523 17.0001 32V16C17.0001 15.4477 17.4478 15 18.0001 15H24.5858Z" stroke="#FF9C54" stroke-width="1.5" stroke-linecap="round" stroke-linejoin="round"/>
<path d="M44.857 44.857L42 46L43.143 43.143L46 42L44.857 44.857Z" stroke="#FFD166" stroke-linecap="round" stroke-linejoin="round"/>
<path d="M44 49C46.7614 49 49 46.7614 49 44C49 41.2386 46.7614 39 44 39C41.2386 39 39 41.2386 39 44C39 46.7614 41.2386 49 44 49Z" stroke="#FFD166" stroke-linecap="round" stroke-linejoin="round"/>
</svg>
