<svg width="56" height="56" viewBox="0 0 56 56" fill="none" xmlns="http://www.w3.org/2000/svg">
<path d="M0.145062 17.7951C0.557336 8.07618 8.41524 0.344989 18.1393 0.0809146C22.1123 -0.0269778 25.8878 -0.0269719 29.8608 0.0809346C39.5848 0.345042 47.4427 8.07621 47.8549 17.7951C47.944 19.8945 48 21.9607 48 23.8369C48 25.8326 47.9366 28.0427 47.8375 30.2788C47.4149 39.8147 39.8247 47.4178 30.2889 47.8413C28.1053 47.9383 25.9497 48 24 48C22.0504 48 19.8947 47.9383 17.7111 47.8413C8.17527 47.4178 0.585067 39.8146 0.162462 30.2788C0.0633626 28.0427 1.5469e-07 25.8326 0 23.8369C-1.45434e-07 21.9607 0.0560061 19.8945 0.145062 17.7951Z" fill="#2D70FD" fill-opacity="0.2"/>
<path d="M0.644612 17.8163C1.04574 8.36008 8.69109 0.837682 18.1529 0.58073C22.1168 0.473084 25.8833 0.47309 29.8472 0.58075C39.309 0.837734 46.9543 8.36011 47.3554 17.8163C47.4443 19.9112 47.5 21.9699 47.5 23.8369C47.5 25.8229 47.4369 28.0251 47.338 30.2567C46.9269 39.5342 39.5434 46.9298 30.2668 47.3418C28.0877 47.4386 25.9399 47.5 24 47.5C22.0601 47.5 19.9123 47.4386 17.7332 47.3418C8.45662 46.9298 1.07313 39.5342 0.661972 30.2567C0.563072 28.0251 0.5 25.8229 0.5 23.8369C0.5 21.9699 0.555746 19.9112 0.644612 17.8163Z" stroke="#2D70FD" stroke-opacity="0.1"/>
<path d="M21.0078 30.6356C20.8892 30.6059 20.7638 30.6182 20.6545 30.6729L16.8538 32.5732C16.4931 32.7536 16.0782 32.4546 16.1352 32.0553L16.6149 28.6975C16.639 28.5291 16.575 28.3608 16.4499 28.2456C14.924 26.8412 14.0003 25.0069 14.0003 23C14.0003 18.5817 18.4774 15 24.0003 15C29.5231 15 34.0003 18.5817 34.0003 23C34.0003 27.4183 29.5231 31 24.0003 31C22.9578 31 21.9527 30.8724 21.0078 30.6356Z" stroke="#2D70FD" stroke-width="1.5" stroke-linecap="round" stroke-linejoin="round"/>
<circle cx="44" cy="44" r="12" fill="white"/>
<circle cx="44" cy="44" r="11.5" stroke="#36C5F0" stroke-opacity="0.3"/>
<path d="M40.5212 45.5831C40.5212 46.2769 39.9544 46.8437 39.2606 46.8437C38.5668 46.8437 38 46.2769 38 45.5831C38 44.8893 38.5668 44.3225 39.2606 44.3225H40.5212V45.5831Z" fill="#E01E5A"/>
<path d="M41.1573 45.5831C41.1573 44.8893 41.724 44.3225 42.4179 44.3225C43.1117 44.3225 43.6785 44.8893 43.6785 45.5831V48.7395C43.6785 49.4334 43.1117 50.0001 42.4179 50.0001C41.724 50.0001 41.1573 49.4334 41.1573 48.7395V45.5831Z" fill="#E01E5A"/>
<path d="M42.4179 40.5212C41.7241 40.5212 41.1573 39.9544 41.1573 39.2606C41.1573 38.5668 41.7241 38 42.4179 38C43.1118 38 43.6785 38.5668 43.6785 39.2606V40.5212H42.4179Z" fill="#36C5F0"/>
<path d="M42.417 41.1565C43.1108 41.1565 43.6776 41.7233 43.6776 42.4171C43.6776 43.1109 43.1108 43.6777 42.417 43.6777H39.2606C38.5668 43.6777 38 43.1109 38 42.4171C38 41.7233 38.5668 41.1565 39.2606 41.1565H42.417Z" fill="#36C5F0"/>
<path d="M47.4778 42.4171C47.4778 41.7233 48.0446 41.1565 48.7384 41.1565C49.4322 41.1565 49.999 41.7233 49.999 42.4171C49.999 43.1109 49.4322 43.6777 48.7384 43.6777H47.4778V42.4171Z" fill="#2EB67D"/>
<path d="M46.8433 42.417C46.8433 43.1108 46.2765 43.6776 45.5827 43.6776C44.8889 43.6776 44.3221 43.1108 44.3221 42.417V39.2606C44.3221 38.5668 44.8889 38 45.5827 38C46.2765 38 46.8433 38.5668 46.8433 39.2606V42.417Z" fill="#2EB67D"/>
<path d="M45.5827 47.479C46.2765 47.479 46.8433 48.0458 46.8433 48.7396C46.8433 49.4334 46.2765 50.0002 45.5827 50.0002C44.8889 50.0002 44.3221 49.4334 44.3221 48.7396V47.479H45.5827Z" fill="#ECB22E"/>
<path d="M45.5827 46.8437C44.8889 46.8437 44.3221 46.2769 44.3221 45.5831C44.3221 44.8893 44.8889 44.3225 45.5827 44.3225H48.7391C49.4329 44.3225 49.9997 44.8893 49.9997 45.5831C49.9997 46.2769 49.4329 46.8437 48.7391 46.8437H45.5827Z" fill="#ECB22E"/>
</svg>
