<svg width="34" height="34" viewBox="0 0 34 34" fill="none" xmlns="http://www.w3.org/2000/svg">
<path opacity="0.4" d="M33.6665 16.9999C33.6665 26.2049 26.2048 33.6666 16.9998 33.6666C7.79483 33.6666 0.33316 26.2049 0.33316 16.9999C0.33316 7.79659 7.79483 0.333252 16.9998 0.333252C26.2048 0.333252 33.6665 7.79659 33.6665 16.9999Z" fill="white"/>
<path d="M23.433 11.5083L20.733 20.0417C20.633 20.3917 20.3496 20.675 19.9996 20.7767L11.4997 23.4417C10.933 23.6267 10.383 23.075 10.5663 22.5083L13.233 13.9583C13.333 13.6083 13.6163 13.3417 13.9663 13.225L22.4996 10.5583C23.083 10.375 23.6163 10.925 23.433 11.5083Z" fill="white"/>
</svg>
