<svg width="34" height="34" viewBox="0 0 34 34" fill="none" xmlns="http://www.w3.org/2000/svg">
<path opacity="0.4" d="M24.2339 0.333008H9.78388C4.13388 0.333008 0.333878 4.29967 0.333878 10.1997V23.8163C0.333878 29.6997 4.13388 33.6663 9.78388 33.6663H24.2339C29.8839 33.6663 33.6672 29.6997 33.6672 23.8163V10.1997C33.6672 4.29967 29.8839 0.333008 24.2339 0.333008Z" fill="white"/>
<path d="M15.0224 22.4132C14.6491 22.4132 14.2757 22.2715 13.9907 21.9865L10.0357 18.0315C9.46573 17.4615 9.46573 16.5382 10.0357 15.9699C10.6057 15.3999 11.5274 15.3982 12.0974 15.9682L15.0224 18.8932L21.9024 12.0132C22.4724 11.4432 23.3941 11.4432 23.9641 12.0132C24.5341 12.5832 24.5341 13.5065 23.9641 14.0765L16.0541 21.9865C15.7691 22.2715 15.3957 22.4132 15.0224 22.4132Z" fill="white"/>
</svg>
