<svg width="26" height="26" viewBox="0 0 26 26" fill="none" xmlns="http://www.w3.org/2000/svg">
<path opacity="0.4" d="M22.0002 12C22.0002 17.515 17.5142 22 12.0002 22C6.4862 22 2.0002 17.515 2.0002 12C2.0002 6.486 6.4862 2 12.0002 2C17.5142 2 22.0002 6.486 22.0002 12Z" fill="white"/>
<path d="M16.2209 10.558C16.2209 10.749 16.1479 10.941 16.0019 11.087L12.5319 14.574C12.3909 14.715 12.1999 14.794 11.9999 14.794C11.8009 14.794 11.6099 14.715 11.4689 14.574L7.9969 11.087C7.7049 10.794 7.7049 10.32 7.9989 10.027C8.2929 9.73497 8.7679 9.73597 9.0599 10.029L11.9999 12.982L14.9399 10.029C15.2319 9.73597 15.7059 9.73497 15.9999 10.027C16.1479 10.173 16.2209 10.366 16.2209 10.558Z" fill="white"/>
</svg>
