<svg width="32" height="32" viewBox="0 0 32 32" fill="none" xmlns="http://www.w3.org/2000/svg">
<path opacity="0.4" d="M29.3332 21.2537C29.3332 24.9737 26.3465 27.987 22.6265 28.0003H22.6132H9.39987C5.6932 28.0003 2.66653 25.0003 2.66653 21.2803V21.267C2.66653 21.267 2.67453 15.3657 2.6852 12.3977C2.68653 11.8403 3.32653 11.5283 3.76253 11.875C6.93053 14.3883 12.5959 18.971 12.6665 19.031C13.6132 19.7897 14.8132 20.2177 16.0399 20.2177C17.2665 20.2177 18.4665 19.7897 19.4132 19.0163C19.4839 18.9697 25.0225 14.5243 28.2385 11.9697C28.6759 11.6217 29.3185 11.9337 29.3199 12.4897C29.3332 15.435 29.3332 21.2537 29.3332 21.2537" fill="white"/>
<path d="M28.6347 7.56436C27.48 5.38836 25.208 3.99902 22.7067 3.99902H9.40001C6.89867 3.99902 4.62667 5.38836 3.47201 7.56436C3.21334 8.05102 3.33601 8.65769 3.76667 9.00169L13.6667 16.9204C14.36 17.4804 15.2 17.759 16.04 17.759C16.0453 17.759 16.0493 17.759 16.0533 17.759C16.0573 17.759 16.0627 17.759 16.0667 17.759C16.9067 17.759 17.7467 17.4804 18.44 16.9204L28.34 9.00169C28.7707 8.65769 28.8933 8.05102 28.6347 7.56436" fill="white"/>
</svg>
