<svg width="32" height="32" viewBox="0 0 32 32" fill="none" xmlns="http://www.w3.org/2000/svg">
<path opacity="0.4" d="M2.66693 14.7715C2.7336 17.8888 2.92026 23.2208 2.94693 23.8088C3.0416 25.0662 3.52293 26.3368 4.27226 27.2328C5.31493 28.4902 6.59893 29.0515 8.3896 29.0515C10.8643 29.0648 13.5923 29.0648 16.2416 29.0648C18.9016 29.0648 21.4829 29.0648 23.6629 29.0515C25.4283 29.0515 26.7523 28.4755 27.7816 27.2328C28.5309 26.3368 29.0123 25.0528 29.0803 23.8088C29.1069 23.3142 29.2403 17.5262 29.3203 14.7715H2.66693Z" fill="white"/>
<path d="M14.9939 20.5117V22.2371C14.9939 22.7891 15.4419 23.2371 15.9939 23.2371C16.5459 23.2371 16.9939 22.7891 16.9939 22.2371V20.5117C16.9939 19.9597 16.5459 19.5117 15.9939 19.5117C15.4419 19.5117 14.9939 19.9597 14.9939 20.5117" fill="white"/>
<path fill-rule="evenodd" clip-rule="evenodd" d="M13.6151 19.4083C13.4817 19.8923 13.0164 20.2017 12.5124 20.135C9.11107 19.6603 5.8604 18.4537 3.1164 16.6417C2.83507 16.4577 2.66707 16.143 2.66707 15.807V11.1857C2.66707 8.38566 4.94974 6.10833 7.7564 6.10833H10.3791C10.6297 4.17233 12.2697 2.66699 14.2724 2.66699H17.7151C19.7164 2.66699 21.3577 4.17233 21.6084 6.10833H24.2444C27.0431 6.10833 29.3204 8.38566 29.3204 11.1857V15.807C29.3204 16.143 29.1511 16.4563 28.8724 16.6417C26.1231 18.4617 22.8591 19.6737 19.4351 20.147C19.3884 20.1537 19.3431 20.1563 19.2977 20.1563C18.8457 20.1563 18.4417 19.851 18.3284 19.403C18.0591 18.3417 17.0951 17.599 15.9871 17.599C14.8644 17.599 13.9111 18.3257 13.6151 19.4083ZM17.7151 4.66699H14.2724C13.3751 4.66699 12.6257 5.28033 12.4017 6.10833H19.5844C19.3604 5.28033 18.6111 4.66699 17.7151 4.66699Z" fill="white"/>
</svg>
