<svg width="179" height="26" viewBox="0 0 179 26" fill="none" xmlns="http://www.w3.org/2000/svg">
<path d="M20.6779 14.8781H0V7.27763C0 5.63429 0.27571 4.27462 0.827114 3.19863C1.37852 2.12265 2.13672 1.32054 3.10168 0.792322C4.06664 0.264107 5.14978 0 6.35106 0C7.49326 0 8.54686 0.254321 9.51182 0.762977C10.4571 1.27163 11.2251 2.06395 11.8159 3.13994C12.3871 4.21593 12.6726 5.59516 12.6726 7.27763V11.1219H20.6779V14.8781ZM9.60044 11.1219V7.51239C9.60044 6.20164 9.31493 5.26259 8.74378 4.69524C8.15299 4.10834 7.35541 3.81488 6.35106 3.81488C5.32702 3.81488 4.52944 4.10834 3.95833 4.69524C3.36754 5.26259 3.07214 6.20164 3.07214 7.51239V11.1219H9.60044Z" fill="white"/>
<path d="M9.15625 11.1221H29.8341V18.7225C29.8341 20.3658 29.5584 21.7255 29.007 22.8015C28.4556 23.8774 27.6974 24.6796 26.7324 25.2078C25.7675 25.736 24.6843 26.0001 23.4831 26.0001C22.3409 26.0001 21.2872 25.7458 20.3223 25.2371C19.377 24.7284 18.609 23.9361 18.0182 22.8602C17.447 21.7842 17.1615 20.405 17.1615 18.7225V14.8783H9.15625V11.1221ZM20.2337 14.8783V18.4877C20.2337 19.7984 20.5192 20.7375 21.0903 21.3049C21.6811 21.8918 22.4787 22.1852 23.4831 22.1852C24.5071 22.1852 25.3046 21.8918 25.8758 21.3049C26.4666 20.7375 26.762 19.7984 26.762 18.4877V14.8783H20.2337Z" fill="white"/>
<path d="M6.35161 25.9999C8.14619 25.9999 9.60098 24.5547 9.60098 22.7719C9.60098 20.9892 8.14619 19.5439 6.35161 19.5439C4.55703 19.5439 3.10223 20.9892 3.10223 22.7719C3.10223 24.5547 4.55703 25.9999 6.35161 25.9999Z" fill="#FFD166"/>
<path d="M23.4839 6.48526C25.2785 6.48526 26.7333 5.04004 26.7333 3.25728C26.7333 1.47451 25.2785 0.0292969 23.4839 0.0292969C21.6894 0.0292969 20.2346 1.47451 20.2346 3.25728C20.2346 5.04004 21.6894 6.48526 23.4839 6.48526Z" fill="#00D8A7"/>
<path d="M43.3633 22.9186V2.37694H51.0141C52.6683 2.37694 54.037 2.65084 55.1201 3.19861C56.2032 3.74639 57.0107 4.49959 57.5424 5.4582C58.0741 6.41681 58.34 7.49281 58.34 8.68618C58.34 9.82082 58.084 10.8676 57.5719 11.8261C57.0598 12.7652 56.2623 13.5282 55.1792 14.1151C54.0961 14.6824 52.7077 14.9661 51.0141 14.9661H47.1444V22.9186H43.3633ZM47.1444 11.9142H50.7778C52.0972 11.9142 53.0424 11.6305 53.6136 11.0631C54.2044 10.4762 54.4998 9.68392 54.4998 8.68618C54.4998 7.66888 54.2044 6.87656 53.6136 6.30921C53.0424 5.72231 52.0972 5.42885 50.7778 5.42885H47.1444V11.9142ZM60.4792 22.9186V8.36338H63.8468L64.2012 11.0925C64.733 10.1534 65.4518 9.40998 66.3576 8.86225C67.2833 8.2949 68.3664 8.01124 69.607 8.01124V11.9729H68.5436C67.7165 11.9729 66.978 12.1001 66.3281 12.3543C65.6782 12.6086 65.1663 13.0488 64.792 13.6749C64.4376 14.301 64.2603 15.1715 64.2603 16.2866V22.9186H60.4792ZM78.2236 23.2708C76.8057 23.2708 75.5258 22.948 74.3835 22.3024C73.2609 21.6568 72.365 20.7666 71.6953 19.632C71.0455 18.4777 70.7205 17.1475 70.7205 15.641C70.7205 14.1346 71.0554 12.814 71.7249 11.6794C72.3945 10.5251 73.2905 9.62523 74.413 8.97963C75.5553 8.33404 76.8353 8.01124 78.2532 8.01124C79.6514 8.01124 80.9117 8.33404 82.0343 8.97963C83.1766 9.62523 84.0725 10.5251 84.7224 11.6794C85.392 12.814 85.7267 14.1346 85.7267 15.641C85.7267 17.1475 85.392 18.4777 84.7224 19.632C84.0725 20.7666 83.1766 21.6568 82.0343 22.3024C80.8921 22.948 79.6219 23.2708 78.2236 23.2708ZM78.2236 20.0135C79.2083 20.0135 80.065 19.6515 80.7936 18.9277C81.5223 18.1842 81.8866 17.0888 81.8866 15.641C81.8866 14.1933 81.5223 13.1075 80.7936 12.3837C80.065 11.6402 79.2182 11.2686 78.2532 11.2686C77.2488 11.2686 76.3824 11.6402 75.6537 12.3837C74.9447 13.1075 74.5902 14.1933 74.5902 15.641C74.5902 17.0888 74.9447 18.1842 75.6537 18.9277C76.3824 19.6515 77.2391 20.0135 78.2236 20.0135ZM95.1041 23.2708C93.7255 23.2708 92.4948 22.9382 91.4117 22.273C90.3284 21.6079 89.4718 20.6982 88.8417 19.5439C88.2115 18.3896 87.8964 17.0789 87.8964 15.6117C87.8964 14.1444 88.2115 12.8434 88.8417 11.7087C89.4718 10.5544 90.3284 9.65457 91.4117 9.00898C92.4948 8.34382 93.7255 8.01124 95.1041 8.01124C96.2069 8.01124 97.1719 8.21666 97.999 8.62749C98.8262 9.03832 99.4957 9.6154 100.008 10.3589V1.79004H103.789V22.9186H100.421L100.008 20.8351C99.5351 21.4807 98.9049 22.0481 98.1172 22.5372C97.3492 23.0262 96.3448 23.2708 95.1041 23.2708ZM95.9017 19.9841C97.1226 19.9841 98.1172 19.5831 98.8852 18.781C99.6729 17.9593 100.067 16.9127 100.067 15.641C100.067 14.3693 99.6729 13.3326 98.8852 12.5304C98.1172 11.7087 97.1226 11.2979 95.9017 11.2979C94.7003 11.2979 93.7059 11.6989 92.9182 12.5011C92.1304 13.3032 91.7366 14.34 91.7366 15.6117C91.7366 16.8833 92.1304 17.9299 92.9182 18.7516C93.7059 19.5733 94.7003 19.9841 95.9017 19.9841ZM112.395 23.2708C110.563 23.2708 109.146 22.7034 108.141 21.5688C107.157 20.4341 106.664 18.7711 106.664 16.5801V8.36338H110.416V16.2279C110.416 17.4799 110.672 18.4386 111.184 19.1038C111.696 19.7689 112.503 20.1015 113.606 20.1015C114.65 20.1015 115.507 19.7298 116.176 18.9864C116.865 18.2429 117.21 17.2061 117.21 15.8758V8.36338H120.991V22.9186H117.653L117.358 20.4536C116.905 21.3145 116.245 21.9991 115.378 22.5078C114.532 23.0165 113.537 23.2708 112.395 23.2708ZM131.312 23.2708C129.816 23.2708 128.496 22.948 127.354 22.3024C126.212 21.6568 125.306 20.7569 124.636 19.6026C123.986 18.4483 123.661 17.1278 123.661 15.641C123.661 14.1542 123.986 12.8337 124.636 11.6794C125.306 10.5251 126.212 9.62523 127.354 8.97963C128.496 8.33404 129.816 8.01124 131.312 8.01124C133.183 8.01124 134.758 8.50032 136.039 9.4785C137.319 10.4371 138.136 11.7674 138.49 13.4695H134.503C134.306 12.7652 133.912 12.2174 133.321 11.8261C132.75 11.4153 132.07 11.2099 131.283 11.2099C130.239 11.2099 129.353 11.6012 128.624 12.3837C127.896 13.1662 127.531 14.252 127.531 15.641C127.531 17.0301 127.896 18.1158 128.624 18.8983C129.353 19.6808 130.239 20.0721 131.283 20.0721C132.07 20.0721 132.75 19.8766 133.321 19.4852C133.912 19.0939 134.306 18.5364 134.503 17.8126H138.49C138.136 19.4559 137.319 20.7764 136.039 21.7742C134.758 22.7719 133.183 23.2708 131.312 23.2708ZM147.435 22.9186C145.899 22.9186 144.667 22.547 143.742 21.8035C142.816 21.0601 142.354 19.7395 142.354 17.8419V11.5033H139.843V8.36338H142.354L142.797 4.46046H146.135V8.36338H150.093V11.5033H146.135V17.8713C146.135 18.5755 146.283 19.0646 146.578 19.3385C146.893 19.5928 147.425 19.72 148.173 19.72H150.005V22.9186H147.435ZM159.345 23.2708C157.868 23.2708 156.558 22.9578 155.417 22.3317C154.273 21.7057 153.378 20.8253 152.728 19.6907C152.079 18.556 151.754 17.2452 151.754 15.7584C151.754 14.252 152.068 12.9119 152.699 11.7381C153.349 10.5643 154.235 9.65457 155.357 9.00898C156.499 8.34382 157.839 8.01124 159.375 8.01124C160.812 8.01124 162.082 8.32425 163.186 8.95029C164.287 9.57637 165.144 10.4371 165.756 11.5327C166.385 12.6086 166.701 13.8118 166.701 15.1421C166.701 15.3574 166.69 15.5823 166.671 15.8171C166.671 16.0518 166.661 16.2964 166.642 16.5507H155.505C155.583 17.6854 155.978 18.5755 156.687 19.2211C157.415 19.8667 158.291 20.1895 159.316 20.1895C160.084 20.1895 160.723 20.0233 161.236 19.6907C161.768 19.3385 162.161 18.8885 162.418 18.3408H166.258C165.981 19.2603 165.519 20.1015 164.869 20.8645C164.239 21.6079 163.451 22.1948 162.506 22.6252C161.58 23.0555 160.527 23.2708 159.345 23.2708ZM159.375 11.0631C158.449 11.0631 157.632 11.3273 156.923 11.8555C156.214 12.3642 155.761 13.1467 155.564 14.2031H162.861C162.802 13.2445 162.447 12.4816 161.797 11.9142C161.147 11.3468 160.339 11.0631 159.375 11.0631ZM169.142 22.9186V8.36338H172.51L172.864 11.0925C173.396 10.1534 174.114 9.40998 175.021 8.86225C175.945 8.2949 177.029 8.01124 178.27 8.01124V11.9729H177.207C176.379 11.9729 175.641 12.1001 174.991 12.3543C174.341 12.6086 173.829 13.0488 173.455 13.6749C173.101 14.301 172.923 15.1715 172.923 16.2866V22.9186H169.142Z" fill="white"/>
</svg>
